<svg width="200" height="160" viewBox="0 0 200 160" fill="none" xmlns="http://www.w3.org/2000/svg">
<g clip-path="url(#clip0_132_15)">
<rect width="200" height="140" rx="10" fill="white"/>
<g opacity="0.3">
<path d="M68.5814 16.9376V61.9579L113.602 16.9376H68.5814ZM76.6851 25.0413H94.0377L76.6851 42.3943V25.0413Z" fill="white"/>
<path d="M68.5814 62.8583C68.3426 62.8583 68.1136 62.7635 67.9448 62.5946C67.7759 62.4257 67.681 62.1967 67.681 61.9579V16.9376C67.681 16.6988 67.7759 16.4698 67.9448 16.3009C68.1136 16.1321 68.3426 16.0372 68.5814 16.0372H113.602C113.78 16.0372 113.954 16.09 114.102 16.189C114.25 16.2879 114.365 16.4285 114.434 16.593C114.502 16.7575 114.519 16.9386 114.485 17.1132C114.45 17.2879 114.364 17.4483 114.238 17.5742L69.218 62.5945C69.1345 62.6782 69.0352 62.7445 68.926 62.7898C68.8168 62.8351 68.6997 62.8583 68.5814 62.8583ZM69.4818 17.838V59.7843L111.428 17.838H69.4818ZM76.6851 43.2947C76.4463 43.2947 76.2173 43.1999 76.0484 43.031C75.8795 42.8621 75.7847 42.6331 75.7847 42.3943V25.0413C75.7847 24.8025 75.8795 24.5735 76.0484 24.4046C76.2173 24.2357 76.4463 24.1409 76.6851 24.1409H94.0377C94.2158 24.1409 94.3899 24.1937 94.5379 24.2926C94.686 24.3915 94.8014 24.5322 94.8695 24.6967C94.9377 24.8612 94.9555 25.0422 94.9207 25.2169C94.886 25.3915 94.8002 25.552 94.6743 25.6779L77.3217 43.0309C77.2381 43.1146 77.1389 43.1809 77.0296 43.2262C76.9204 43.2715 76.8033 43.2947 76.6851 43.2947ZM77.5855 25.9417V40.2207L91.8641 25.9417H77.5855Z" fill="#111625"/>
<path d="M72.1831 19.6388C71.9443 19.6388 71.7152 19.544 71.5464 19.3751C71.3775 19.2063 71.2827 18.9772 71.2827 18.7384V16.9376C71.2827 16.6988 71.3775 16.4698 71.5464 16.3009C71.7152 16.1321 71.9443 16.0372 72.1831 16.0372C72.4219 16.0372 72.6509 16.1321 72.8197 16.3009C72.9886 16.4698 73.0835 16.6988 73.0835 16.9376V18.7384C73.0835 18.9772 72.9886 19.2063 72.8197 19.3751C72.6509 19.544 72.4219 19.6388 72.1831 19.6388Z" fill="#111625"/>
<path d="M75.7847 18.7384C75.5459 18.7384 75.3169 18.6436 75.148 18.4747C74.9791 18.3059 74.8843 18.0768 74.8843 17.838V16.9376C74.8843 16.6988 74.9791 16.4698 75.148 16.3009C75.3169 16.1321 75.5459 16.0372 75.7847 16.0372C76.0235 16.0372 76.2525 16.1321 76.4214 16.3009C76.5902 16.4698 76.6851 16.6988 76.6851 16.9376V17.838C76.6851 18.0768 76.5902 18.3059 76.4214 18.4747C76.2525 18.6436 76.0235 18.7384 75.7847 18.7384Z" fill="#111625"/>
<path d="M79.3863 19.6388C79.1475 19.6388 78.9185 19.544 78.7496 19.3751C78.5808 19.2063 78.4859 18.9772 78.4859 18.7384V16.9376C78.4859 16.6988 78.5808 16.4698 78.7496 16.3009C78.9185 16.1321 79.1475 16.0372 79.3863 16.0372C79.6251 16.0372 79.8541 16.1321 80.023 16.3009C80.1918 16.4698 80.2867 16.6988 80.2867 16.9376V18.7384C80.2867 18.9772 80.1918 19.2063 80.023 19.3751C79.8541 19.544 79.6251 19.6388 79.3863 19.6388Z" fill="#111625"/>
<path d="M82.9879 18.7384C82.7491 18.7384 82.5201 18.6436 82.3512 18.4747C82.1824 18.3059 82.0875 18.0768 82.0875 17.838V16.9376C82.0875 16.6988 82.1824 16.4698 82.3512 16.3009C82.5201 16.1321 82.7491 16.0372 82.9879 16.0372C83.2267 16.0372 83.4558 16.1321 83.6246 16.3009C83.7935 16.4698 83.8883 16.6988 83.8883 16.9376V17.838C83.8883 18.0768 83.7935 18.3059 83.6246 18.4747C83.4558 18.6436 83.2267 18.7384 82.9879 18.7384Z" fill="#111625"/>
<path d="M86.5896 19.6388C86.3508 19.6388 86.1217 19.544 85.9529 19.3751C85.784 19.2063 85.6891 18.9772 85.6891 18.7384V16.9376C85.6891 16.6988 85.784 16.4698 85.9529 16.3009C86.1217 16.1321 86.3508 16.0372 86.5896 16.0372C86.8284 16.0372 87.0574 16.1321 87.2262 16.3009C87.3951 16.4698 87.49 16.6988 87.49 16.9376V18.7384C87.49 18.9772 87.3951 19.2063 87.2262 19.3751C87.0574 19.544 86.8284 19.6388 86.5896 19.6388Z" fill="#111625"/>
<path d="M90.1912 18.7384C89.9524 18.7384 89.7234 18.6436 89.5545 18.4747C89.3856 18.3059 89.2908 18.0768 89.2908 17.838V16.9376C89.2908 16.6988 89.3856 16.4698 89.5545 16.3009C89.7234 16.1321 89.9524 16.0372 90.1912 16.0372C90.43 16.0372 90.659 16.1321 90.8279 16.3009C90.9967 16.4698 91.0916 16.6988 91.0916 16.9376V17.838C91.0916 18.0768 90.9967 18.3059 90.8279 18.4747C90.659 18.6436 90.43 18.7384 90.1912 18.7384Z" fill="#111625"/>
<path d="M93.7928 19.6388C93.554 19.6388 93.325 19.544 93.1561 19.3751C92.9873 19.2063 92.8924 18.9772 92.8924 18.7384V16.9376C92.8924 16.6988 92.9873 16.4698 93.1561 16.3009C93.325 16.1321 93.554 16.0372 93.7928 16.0372C94.0316 16.0372 94.2606 16.1321 94.4295 16.3009C94.5983 16.4698 94.6932 16.6988 94.6932 16.9376V18.7384C94.6932 18.9772 94.5983 19.2063 94.4295 19.3751C94.2606 19.544 94.0316 19.6388 93.7928 19.6388Z" fill="#111625"/>
<path d="M97.3945 18.7384C97.1557 18.7384 96.9267 18.6436 96.7578 18.4747C96.5889 18.3059 96.4941 18.0768 96.4941 17.838V16.9376C96.4941 16.6988 96.5889 16.4698 96.7578 16.3009C96.9267 16.1321 97.1557 16.0372 97.3945 16.0372C97.6333 16.0372 97.8623 16.1321 98.0312 16.3009C98.2 16.4698 98.2949 16.6988 98.2949 16.9376V17.838C98.2949 18.0768 98.2 18.3059 98.0312 18.4747C97.8623 18.6436 97.6333 18.7384 97.3945 18.7384Z" fill="#111625"/>
<path d="M100.996 19.6388C100.757 19.6388 100.528 19.544 100.359 19.3751C100.191 19.2063 100.096 18.9772 100.096 18.7384V16.9376C100.096 16.6988 100.191 16.4698 100.359 16.3009C100.528 16.1321 100.757 16.0372 100.996 16.0372C101.235 16.0372 101.464 16.1321 101.633 16.3009C101.802 16.4698 101.897 16.6988 101.897 16.9376V18.7384C101.897 18.9772 101.802 19.2063 101.633 19.3751C101.464 19.544 101.235 19.6388 100.996 19.6388Z" fill="#111625"/>
<path d="M104.598 18.7384C104.359 18.7384 104.13 18.6436 103.961 18.4747C103.792 18.3059 103.697 18.0768 103.697 17.838V16.9376C103.697 16.6988 103.792 16.4698 103.961 16.3009C104.13 16.1321 104.359 16.0372 104.598 16.0372C104.837 16.0372 105.066 16.1321 105.234 16.3009C105.403 16.4698 105.498 16.6988 105.498 16.9376V17.838C105.498 18.0768 105.403 18.3059 105.234 18.4747C105.066 18.6436 104.837 18.7384 104.598 18.7384Z" fill="#111625"/>
<path d="M108.199 19.6388C107.961 19.6388 107.732 19.544 107.563 19.3751C107.394 19.2063 107.299 18.9772 107.299 18.7384V16.9376C107.299 16.6988 107.394 16.4698 107.563 16.3009C107.732 16.1321 107.961 16.0372 108.199 16.0372C108.438 16.0372 108.667 16.1321 108.836 16.3009C109.005 16.4698 109.1 16.6988 109.1 16.9376V18.7384C109.1 18.9772 109.005 19.2063 108.836 19.3751C108.667 19.544 108.438 19.6388 108.199 19.6388Z" fill="#111625"/>
<path d="M176.63 93.4721H126.207V101.576H176.63V93.4721Z" fill="white"/>
<path d="M176.63 102.476H126.207C125.969 102.476 125.74 102.381 125.571 102.212C125.402 102.044 125.307 101.815 125.307 101.576V93.4721C125.307 93.2333 125.402 93.0043 125.571 92.8354C125.74 92.6666 125.969 92.5717 126.207 92.5717H176.63C176.869 92.5717 177.098 92.6666 177.267 92.8354C177.436 93.0043 177.531 93.2333 177.531 93.4721V101.576C177.531 101.815 177.436 102.044 177.267 102.212C177.098 102.381 176.869 102.476 176.63 102.476ZM127.108 100.675H175.73V94.3725H127.108V100.675Z" fill="#111625"/>
<path d="M129.809 96.1733C129.57 96.1733 129.341 96.0785 129.172 95.9096C129.004 95.7408 128.909 95.5117 128.909 95.2729V93.4721C128.909 93.2333 129.004 93.0043 129.172 92.8354C129.341 92.6666 129.57 92.5717 129.809 92.5717C130.048 92.5717 130.277 92.6666 130.446 92.8354C130.615 93.0043 130.71 93.2333 130.71 93.4721V95.2729C130.71 95.5117 130.615 95.7408 130.446 95.9096C130.277 96.0785 130.048 96.1733 129.809 96.1733Z" fill="#111625"/>
<path d="M133.411 95.2729C133.172 95.2729 132.943 95.1781 132.774 95.0092C132.605 94.8404 132.51 94.6113 132.51 94.3725V93.4721C132.51 93.2333 132.605 93.0043 132.774 92.8354C132.943 92.6666 133.172 92.5717 133.411 92.5717C133.65 92.5717 133.879 92.6666 134.047 92.8354C134.216 93.0043 134.311 93.2333 134.311 93.4721V94.3725C134.311 94.6113 134.216 94.8404 134.047 95.0092C133.879 95.1781 133.65 95.2729 133.411 95.2729Z" fill="#111625"/>
<path d="M137.012 96.1733C136.774 96.1733 136.545 96.0785 136.376 95.9096C136.207 95.7408 136.112 95.5117 136.112 95.2729V93.4721C136.112 93.2333 136.207 93.0043 136.376 92.8354C136.545 92.6666 136.774 92.5717 137.012 92.5717C137.251 92.5717 137.48 92.6666 137.649 92.8354C137.818 93.0043 137.913 93.2333 137.913 93.4721V95.2729C137.913 95.5117 137.818 95.7408 137.649 95.9096C137.48 96.0785 137.251 96.1733 137.012 96.1733Z" fill="#111625"/>
<path d="M140.614 95.2729C140.375 95.2729 140.146 95.1781 139.977 95.0092C139.808 94.8404 139.714 94.6113 139.714 94.3725V93.4721C139.714 93.2333 139.808 93.0043 139.977 92.8354C140.146 92.6666 140.375 92.5717 140.614 92.5717C140.853 92.5717 141.082 92.6666 141.251 92.8354C141.42 93.0043 141.514 93.2333 141.514 93.4721V94.3725C141.514 94.6113 141.42 94.8404 141.251 95.0092C141.082 95.1781 140.853 95.2729 140.614 95.2729Z" fill="#111625"/>
<path d="M144.216 96.1733C143.977 96.1733 143.748 96.0785 143.579 95.9096C143.41 95.7408 143.315 95.5117 143.315 95.2729V93.4721C143.315 93.2333 143.41 93.0043 143.579 92.8354C143.748 92.6666 143.977 92.5717 144.216 92.5717C144.454 92.5717 144.683 92.6666 144.852 92.8354C145.021 93.0043 145.116 93.2333 145.116 93.4721V95.2729C145.116 95.5117 145.021 95.7408 144.852 95.9096C144.683 96.0785 144.454 96.1733 144.216 96.1733Z" fill="#111625"/>
<path d="M147.817 95.2729C147.578 95.2729 147.349 95.1781 147.181 95.0092C147.012 94.8404 146.917 94.6113 146.917 94.3725V93.4721C146.917 93.2333 147.012 93.0043 147.181 92.8354C147.349 92.6666 147.578 92.5717 147.817 92.5717C148.056 92.5717 148.285 92.6666 148.454 92.8354C148.623 93.0043 148.718 93.2333 148.718 93.4721V94.3725C148.718 94.6113 148.623 94.8404 148.454 95.0092C148.285 95.1781 148.056 95.2729 147.817 95.2729Z" fill="#111625"/>
<path d="M151.419 96.1733C151.18 96.1733 150.951 96.0785 150.782 95.9096C150.613 95.7408 150.518 95.5117 150.518 95.2729V93.4721C150.518 93.2333 150.613 93.0043 150.782 92.8354C150.951 92.6666 151.18 92.5717 151.419 92.5717C151.658 92.5717 151.887 92.6666 152.056 92.8354C152.224 93.0043 152.319 93.2333 152.319 93.4721V95.2729C152.319 95.5117 152.224 95.7408 152.056 95.9096C151.887 96.0785 151.658 96.1733 151.419 96.1733Z" fill="#111625"/>
<path d="M155.02 95.2729C154.782 95.2729 154.553 95.1781 154.384 95.0092C154.215 94.8404 154.12 94.6113 154.12 94.3725V93.4721C154.12 93.2333 154.215 93.0043 154.384 92.8354C154.553 92.6666 154.782 92.5717 155.02 92.5717C155.259 92.5717 155.488 92.6666 155.657 92.8354C155.826 93.0043 155.921 93.2333 155.921 93.4721V94.3725C155.921 94.6113 155.826 94.8404 155.657 95.0092C155.488 95.1781 155.259 95.2729 155.02 95.2729Z" fill="#111625"/>
<path d="M158.622 96.1733C158.383 96.1733 158.154 96.0785 157.985 95.9096C157.817 95.7408 157.722 95.5117 157.722 95.2729V93.4721C157.722 93.2333 157.817 93.0043 157.985 92.8354C158.154 92.6666 158.383 92.5717 158.622 92.5717C158.861 92.5717 159.09 92.6666 159.259 92.8354C159.428 93.0043 159.522 93.2333 159.522 93.4721V95.2729C159.522 95.5117 159.428 95.7408 159.259 95.9096C159.09 96.0785 158.861 96.1733 158.622 96.1733Z" fill="#111625"/>
<path d="M162.224 95.2729C161.985 95.2729 161.756 95.1781 161.587 95.0092C161.418 94.8404 161.323 94.6113 161.323 94.3725V93.4721C161.323 93.2333 161.418 93.0043 161.587 92.8354C161.756 92.6666 161.985 92.5717 162.224 92.5717C162.463 92.5717 162.692 92.6666 162.86 92.8354C163.029 93.0043 163.124 93.2333 163.124 93.4721V94.3725C163.124 94.6113 163.029 94.8404 162.86 95.0092C162.692 95.1781 162.463 95.2729 162.224 95.2729Z" fill="#111625"/>
<path d="M169.427 95.2729C169.188 95.2729 168.959 95.1781 168.79 95.0092C168.621 94.8404 168.527 94.6113 168.527 94.3725V93.4721C168.527 93.2333 168.621 93.0043 168.79 92.8354C168.959 92.6666 169.188 92.5717 169.427 92.5717C169.666 92.5717 169.895 92.6666 170.064 92.8354C170.232 93.0043 170.327 93.2333 170.327 93.4721V94.3725C170.327 94.6113 170.232 94.8404 170.064 95.0092C169.895 95.1781 169.666 95.2729 169.427 95.2729Z" fill="#111625"/>
<path d="M165.825 96.1733C165.587 96.1733 165.358 96.0785 165.189 95.9096C165.02 95.7408 164.925 95.5117 164.925 95.2729V93.4721C164.925 93.2333 165.02 93.0043 165.189 92.8354C165.358 92.6666 165.587 92.5717 165.825 92.5717C166.064 92.5717 166.293 92.6666 166.462 92.8354C166.631 93.0043 166.726 93.2333 166.726 93.4721V95.2729C166.726 95.5117 166.631 95.7408 166.462 95.9096C166.293 96.0785 166.064 96.1733 165.825 96.1733Z" fill="#111625"/>
<path d="M173.029 96.1733C172.79 96.1733 172.561 96.0785 172.392 95.9096C172.223 95.7408 172.128 95.5117 172.128 95.2729V93.4721C172.128 93.2333 172.223 93.0043 172.392 92.8354C172.561 92.6666 172.79 92.5717 173.029 92.5717C173.267 92.5717 173.496 92.6666 173.665 92.8354C173.834 93.0043 173.929 93.2333 173.929 93.4721V95.2729C173.929 95.5117 173.834 95.7408 173.665 95.9096C173.496 96.0785 173.267 96.1733 173.029 96.1733Z" fill="#111625"/>
<path d="M178.431 124.986H176.63L174.829 124.086L173.029 124.986L171.228 124.086L169.427 124.986L167.626 124.086L165.825 124.986L164.025 124.086L162.224 124.986H160.423V123.186L161.323 121.385L160.423 119.584L161.323 117.783L160.423 115.982L161.323 114.181L160.423 112.381L161.323 110.58L160.423 108.779V106.978H162.224L164.025 107.879L165.825 106.978L167.626 107.879L169.427 106.978L171.228 107.879L173.029 106.978L174.829 107.879L176.63 106.978H178.431V108.779L177.531 110.58L178.431 112.381L177.531 114.181L178.431 115.982L177.531 117.783L178.431 119.584L177.531 121.385L178.431 123.186V124.986Z" fill="white"/>
<path d="M173.029 125.887C172.889 125.887 172.751 125.854 172.626 125.792L171.227 125.093L169.829 125.792C169.704 125.854 169.566 125.887 169.426 125.887C169.287 125.887 169.149 125.854 169.024 125.792L167.626 125.093L166.228 125.792C166.103 125.854 165.965 125.887 165.825 125.887C165.686 125.887 165.548 125.854 165.423 125.792L164.024 125.093L162.626 125.792C162.501 125.854 162.363 125.887 162.224 125.887H160.423C160.184 125.887 159.955 125.792 159.786 125.623C159.617 125.454 159.522 125.225 159.522 124.986V123.186C159.522 123.046 159.555 122.908 159.617 122.783L160.316 121.385L159.617 119.987C159.555 119.862 159.522 119.724 159.522 119.584C159.522 119.444 159.555 119.306 159.617 119.181L160.316 117.783L159.617 116.385C159.555 116.26 159.522 116.122 159.522 115.983C159.522 115.843 159.555 115.705 159.617 115.58L160.316 114.182L159.617 112.783C159.555 112.658 159.522 112.52 159.522 112.381C159.522 112.241 159.555 112.103 159.617 111.978L160.316 110.58L159.617 109.182C159.555 109.057 159.522 108.919 159.522 108.779V106.978C159.522 106.739 159.617 106.51 159.786 106.342C159.955 106.173 160.184 106.078 160.423 106.078H162.224C162.363 106.078 162.501 106.11 162.626 106.173L164.024 106.872L165.423 106.173C165.548 106.11 165.686 106.078 165.825 106.078C165.965 106.078 166.103 106.11 166.228 106.173L167.626 106.872L169.024 106.173C169.149 106.11 169.287 106.078 169.427 106.078C169.567 106.078 169.705 106.11 169.83 106.173L171.228 106.872L172.626 106.173C172.751 106.11 172.889 106.078 173.029 106.078C173.168 106.078 173.306 106.11 173.431 106.173L174.829 106.872L176.227 106.173C176.353 106.11 176.49 106.078 176.63 106.078H178.431C178.67 106.078 178.899 106.173 179.068 106.342C179.237 106.51 179.331 106.739 179.331 106.978V108.779C179.331 108.919 179.299 109.057 179.236 109.182L178.537 110.58L179.236 111.978C179.299 112.103 179.331 112.241 179.331 112.381C179.331 112.52 179.299 112.658 179.236 112.783L178.537 114.182L179.236 115.58C179.299 115.705 179.331 115.843 179.331 115.983C179.331 116.122 179.299 116.26 179.236 116.385L178.537 117.783L179.236 119.181C179.299 119.306 179.331 119.444 179.331 119.584C179.331 119.724 179.299 119.862 179.236 119.987L178.537 121.385L179.236 122.783C179.299 122.908 179.331 123.046 179.331 123.186V124.986C179.331 125.225 179.237 125.454 179.068 125.623C178.899 125.792 178.67 125.887 178.431 125.887H176.63C176.49 125.887 176.353 125.854 176.227 125.792L174.829 125.093L173.431 125.792C173.306 125.854 173.168 125.887 173.029 125.887ZM176.843 124.086H177.531V123.398L176.725 121.787C176.663 121.662 176.63 121.524 176.63 121.385C176.63 121.245 176.663 121.107 176.725 120.982L177.424 119.584L176.725 118.186C176.663 118.061 176.63 117.923 176.63 117.783C176.63 117.643 176.663 117.505 176.725 117.38L177.424 115.983L176.725 114.585C176.663 114.46 176.63 114.322 176.63 114.182C176.63 114.042 176.663 113.904 176.725 113.779L177.424 112.381L176.725 110.983C176.663 110.857 176.63 110.72 176.63 110.58C176.63 110.44 176.663 110.302 176.725 110.177L177.531 108.567V107.879H176.843L175.232 108.684C175.107 108.747 174.969 108.779 174.829 108.779C174.69 108.779 174.552 108.747 174.427 108.684L173.029 107.985L171.63 108.684C171.505 108.747 171.368 108.779 171.228 108.779C171.088 108.779 170.95 108.747 170.825 108.684L169.427 107.985L168.029 108.684C167.904 108.747 167.766 108.779 167.626 108.779C167.486 108.779 167.348 108.747 167.223 108.684L165.825 107.985L164.427 108.684C164.302 108.747 164.164 108.779 164.024 108.779C163.885 108.779 163.747 108.747 163.622 108.684L162.011 107.879H161.323V108.567L162.129 110.177C162.191 110.302 162.224 110.44 162.224 110.58C162.224 110.72 162.191 110.857 162.129 110.983L161.43 112.381L162.129 113.779C162.191 113.904 162.224 114.042 162.224 114.182C162.224 114.322 162.191 114.46 162.129 114.585L161.43 115.983L162.129 117.38C162.191 117.505 162.224 117.643 162.224 117.783C162.224 117.923 162.191 118.061 162.129 118.186L161.43 119.584L162.129 120.982C162.191 121.107 162.224 121.245 162.224 121.385C162.224 121.524 162.191 121.662 162.129 121.787L161.323 123.398V124.086H162.011L163.622 123.28C163.747 123.218 163.885 123.186 164.024 123.186C164.164 123.186 164.302 123.218 164.427 123.28L165.825 123.98L167.223 123.28C167.348 123.218 167.486 123.186 167.626 123.186C167.766 123.186 167.904 123.218 168.029 123.28L169.426 123.98L170.825 123.28C170.95 123.218 171.088 123.186 171.227 123.186C171.367 123.186 171.505 123.218 171.63 123.28L173.029 123.98L174.427 123.28C174.552 123.218 174.69 123.186 174.829 123.186C174.969 123.186 175.107 123.218 175.232 123.28L176.843 124.086Z" fill="#111625"/>
<path d="M173.929 111.48H164.925V120.484H173.929V111.48Z" fill="#111625"/>
<path d="M173.929 121.385H164.925C164.686 121.385 164.457 121.29 164.288 121.121C164.119 120.952 164.025 120.723 164.025 120.484V111.48C164.025 111.241 164.119 111.012 164.288 110.844C164.457 110.675 164.686 110.58 164.925 110.58H173.929C174.168 110.58 174.397 110.675 174.566 110.844C174.735 111.012 174.829 111.241 174.829 111.48V120.484C174.829 120.723 174.735 120.952 174.566 121.121C174.397 121.29 174.168 121.385 173.929 121.385ZM165.825 119.584H173.029V112.381H165.825V119.584Z" fill="#111625"/>
<path d="M106.399 67.3604V60.1571H113.602L106.399 67.3604Z" fill="white"/>
<path d="M106.398 67.3603H82.9879V36.7466H113.602V60.1571H106.398V67.3603Z" fill="white"/>
<path opacity="0.5" d="M113.602 36.7466H82.9879V41.2486H113.602V36.7466Z" fill="#111625"/>
<path d="M106.399 68.2608C106.16 68.2608 105.931 68.1659 105.762 67.997C105.593 67.8282 105.498 67.5992 105.498 67.3604V60.1571C105.498 59.9183 105.593 59.6893 105.762 59.5205C105.931 59.3516 106.16 59.2568 106.399 59.2567L113.602 59.2571C113.78 59.2571 113.954 59.3099 114.102 59.4089C114.25 59.5078 114.365 59.6484 114.434 59.813C114.502 59.9775 114.52 60.1585 114.485 60.3332C114.45 60.5078 114.364 60.6682 114.238 60.7941L107.035 67.9969C106.952 68.0806 106.852 68.1469 106.743 68.1922C106.634 68.2374 106.517 68.2607 106.399 68.2608ZM107.299 61.0575V65.1867L111.428 61.058L107.299 61.0575Z" fill="#111625"/>
<path d="M106.398 68.2608H82.9879C82.7491 68.2608 82.5201 68.1659 82.3512 67.997C82.1824 67.8282 82.0875 67.5992 82.0875 67.3604V36.7466C82.0875 36.5077 82.1824 36.2787 82.3512 36.1099C82.5201 35.941 82.7491 35.8461 82.9879 35.8461H113.602C113.841 35.8461 114.07 35.941 114.238 36.1099C114.407 36.2787 114.502 36.5077 114.502 36.7466V60.1575C114.502 60.3963 114.407 60.6253 114.238 60.7942C114.07 60.963 113.841 61.0579 113.602 61.058L107.299 61.0575V67.3604C107.299 67.5992 107.204 67.8282 107.035 67.997C106.866 68.1659 106.637 68.2608 106.398 68.2608ZM83.8883 66.4599H105.498V60.1571C105.498 59.9183 105.593 59.6893 105.762 59.5205C105.931 59.3516 106.16 59.2568 106.398 59.2567L112.701 59.2571V37.647H83.8883V66.4599Z" fill="#111625"/>
<path d="M142.415 116.883L139.714 123.186L137.012 116.883L139.714 115.082L142.415 116.883Z" fill="white"/>
<path d="M139.714 124.086C139.537 124.086 139.365 124.034 139.218 123.937C139.071 123.84 138.955 123.702 138.886 123.54L136.185 117.237C136.102 117.044 136.089 116.828 136.149 116.626C136.209 116.425 136.338 116.25 136.513 116.133L139.214 114.333C139.362 114.234 139.536 114.182 139.714 114.182C139.891 114.182 140.065 114.234 140.213 114.333L142.914 116.133C143.089 116.25 143.218 116.425 143.278 116.626C143.338 116.828 143.325 117.044 143.242 117.237L140.541 123.54C140.472 123.702 140.356 123.84 140.209 123.937C140.062 124.034 139.89 124.086 139.714 124.086ZM138.135 117.216L139.714 120.9L141.292 117.216L139.714 116.164L138.135 117.216Z" fill="#111625"/>
<path d="M142.415 82.6673V116.883L139.714 115.082L137.012 116.883V82.6673H142.415Z" fill="white"/>
<path d="M142.415 117.783C142.237 117.783 142.063 117.731 141.915 117.632L139.714 116.164L137.512 117.632C137.376 117.722 137.219 117.774 137.056 117.782C136.893 117.79 136.731 117.753 136.587 117.677C136.444 117.6 136.324 117.485 136.24 117.345C136.156 117.206 136.112 117.046 136.112 116.883V82.6673C136.112 82.4284 136.207 82.1994 136.376 82.0306C136.545 81.8617 136.774 81.7668 137.012 81.7668H142.415C142.654 81.7668 142.883 81.8617 143.051 82.0306C143.22 82.1994 143.315 82.4284 143.315 82.6673V116.883C143.315 117.001 143.292 117.118 143.247 117.227C143.201 117.337 143.135 117.436 143.052 117.519C142.968 117.603 142.869 117.669 142.759 117.715C142.65 117.76 142.533 117.783 142.415 117.783ZM139.714 114.181C139.891 114.181 140.065 114.234 140.213 114.333L141.514 115.2V83.5677H137.913V115.2L139.214 114.333C139.362 114.234 139.536 114.181 139.714 114.181Z" fill="#111625"/>
<path d="M142.415 79.0655H137.012V82.6671H142.415V79.0655Z" fill="white"/>
<path d="M142.415 83.5677H137.012C136.774 83.5677 136.545 83.4728 136.376 83.3039C136.207 83.1351 136.112 82.9061 136.112 82.6673V79.0656C136.112 78.8268 136.207 78.5978 136.376 78.4289C136.545 78.2601 136.774 78.1652 137.012 78.1652H142.415C142.654 78.1652 142.883 78.2601 143.051 78.4289C143.22 78.5978 143.315 78.8268 143.315 79.0656V82.6673C143.315 82.9061 143.22 83.1351 143.051 83.3039C142.883 83.4728 142.654 83.5677 142.415 83.5677ZM137.913 81.7668H141.514V79.966H137.913V81.7668Z" fill="#111625"/>
<path d="M142.415 75.4638V79.0655H137.012V75.4638C137.012 75.1091 137.082 74.7578 137.218 74.4301C137.354 74.1024 137.553 73.8046 137.803 73.5538C138.054 73.3029 138.352 73.104 138.68 72.9682C139.008 72.8325 139.359 72.7626 139.714 72.7626C140.43 72.7626 141.117 73.0472 141.624 73.5538C142.13 74.0604 142.415 74.7474 142.415 75.4638Z" fill="white"/>
<path d="M142.415 79.966H137.012C136.774 79.966 136.545 79.8712 136.376 79.7023C136.207 79.5335 136.112 79.3044 136.112 79.0656V75.464C136.112 74.5088 136.491 73.5927 137.167 72.9173C137.842 72.2418 138.758 71.8624 139.714 71.8624C140.669 71.8624 141.585 72.2418 142.26 72.9173C142.936 73.5927 143.315 74.5088 143.315 75.464V79.0656C143.315 79.3044 143.22 79.5335 143.051 79.7023C142.883 79.8712 142.654 79.966 142.415 79.966ZM137.913 78.1652H141.514V75.464C141.514 74.9864 141.325 74.5284 140.987 74.1906C140.649 73.8529 140.191 73.6632 139.714 73.6632C139.236 73.6632 138.778 73.8529 138.44 74.1906C138.102 74.5284 137.913 74.9864 137.913 75.464V78.1652Z" fill="#111625"/>
<path d="M129.809 77.2646V88.0695H124.407V77.2646C124.408 76.7875 124.598 76.3302 124.936 75.9928C125.273 75.6554 125.73 75.4652 126.207 75.4638H128.008C128.485 75.4652 128.943 75.6554 129.28 75.9928C129.618 76.3302 129.808 76.7875 129.809 77.2646Z" fill="white"/>
<path d="M129.809 115.982L128.008 121.385H126.207L124.407 115.982H129.809Z" fill="white"/>
<path d="M128.008 122.285H126.207C126.018 122.285 125.834 122.226 125.681 122.115C125.528 122.005 125.413 121.849 125.353 121.67L123.552 116.267C123.507 116.132 123.495 115.988 123.517 115.847C123.538 115.706 123.593 115.572 123.676 115.456C123.76 115.34 123.869 115.246 123.996 115.181C124.123 115.116 124.264 115.082 124.407 115.082H129.809C129.952 115.082 130.092 115.116 130.219 115.181C130.346 115.246 130.456 115.34 130.539 115.456C130.623 115.572 130.677 115.706 130.699 115.847C130.721 115.988 130.708 116.132 130.663 116.267L128.862 121.67C128.803 121.849 128.688 122.005 128.535 122.115C128.381 122.226 128.197 122.285 128.008 122.285ZM126.856 120.484H127.359L128.56 116.883H125.656L126.856 120.484Z" fill="#111625"/>
<path d="M129.809 88.0697H124.407V99.775L125.307 102.476L124.407 105.177V115.982H129.809V105.177L128.909 102.476L129.809 99.775V88.0697Z" fill="white"/>
<path d="M129.809 88.9701H124.407C124.168 88.9701 123.939 88.8752 123.77 88.7064C123.601 88.5375 123.506 88.3085 123.506 88.0697V77.2648C123.507 76.5486 123.792 75.862 124.298 75.3556C124.805 74.8492 125.491 74.5644 126.207 74.5636H128.008C128.724 74.5644 129.411 74.8492 129.917 75.3556C130.424 75.862 130.709 76.5486 130.709 77.2648V88.0697C130.709 88.3085 130.615 88.5375 130.446 88.7064C130.277 88.8752 130.048 88.9701 129.809 88.9701ZM125.307 87.1693H128.909V77.2648C128.908 77.0261 128.813 76.7973 128.645 76.6285C128.476 76.4597 128.247 76.3647 128.008 76.3644H126.207C125.969 76.3647 125.74 76.4597 125.571 76.6285C125.402 76.7973 125.307 77.0261 125.307 77.2648V87.1693Z" fill="#111625"/>
<path d="M129.809 116.883H124.407C124.168 116.883 123.939 116.788 123.77 116.619C123.601 116.45 123.506 116.221 123.506 115.982V105.177C123.506 104.939 123.601 104.71 123.77 104.541C123.939 104.372 124.168 104.277 124.407 104.277H129.809C130.048 104.277 130.277 104.372 130.446 104.541C130.615 104.71 130.709 104.939 130.709 105.177V115.982C130.709 116.221 130.615 116.45 130.446 116.619C130.277 116.788 130.048 116.883 129.809 116.883ZM125.307 115.082H128.909V106.078H125.307V115.082Z" fill="#111625"/>
<path d="M129.809 113.281H124.407C124.168 113.281 123.939 113.186 123.77 113.017C123.601 112.848 123.506 112.619 123.506 112.381C123.506 112.142 123.601 111.913 123.77 111.744C123.939 111.575 124.168 111.48 124.407 111.48H129.809C130.048 111.48 130.277 111.575 130.446 111.744C130.615 111.913 130.709 112.142 130.709 112.381C130.709 112.619 130.615 112.848 130.446 113.017C130.277 113.186 130.048 113.281 129.809 113.281Z" fill="#111625"/>
<path d="M129.809 109.679H124.407C124.168 109.679 123.939 109.585 123.77 109.416C123.601 109.247 123.506 109.018 123.506 108.779C123.506 108.54 123.601 108.311 123.77 108.142C123.939 107.973 124.168 107.879 124.407 107.879H129.809C130.048 107.879 130.277 107.973 130.446 108.142C130.615 108.311 130.709 108.54 130.709 108.779C130.709 109.018 130.615 109.247 130.446 109.416C130.277 109.585 130.048 109.679 129.809 109.679Z" fill="#111625"/>
<path d="M129.809 100.675H124.407C124.168 100.675 123.939 100.581 123.77 100.412C123.601 100.243 123.506 100.014 123.506 99.775V88.0697C123.506 87.8309 123.601 87.6019 123.77 87.433C123.939 87.2641 124.168 87.1693 124.407 87.1693H129.809C130.048 87.1693 130.277 87.2641 130.446 87.433C130.615 87.6019 130.709 87.8309 130.709 88.0697V99.775C130.709 100.014 130.615 100.243 130.446 100.412C130.277 100.581 130.048 100.675 129.809 100.675ZM125.307 98.8746H128.909V88.9701H125.307V98.8746Z" fill="#111625"/>
<path d="M129.809 106.078H124.407C124.264 106.078 124.123 106.044 123.996 105.979C123.869 105.914 123.76 105.819 123.676 105.704C123.593 105.588 123.538 105.454 123.517 105.313C123.495 105.172 123.507 105.028 123.552 104.893L124.453 102.191C124.513 102.012 124.627 101.856 124.781 101.746C124.934 101.635 125.118 101.576 125.307 101.576H128.909C129.098 101.576 129.282 101.635 129.435 101.746C129.588 101.856 129.703 102.012 129.763 102.191L130.663 104.893C130.708 105.028 130.721 105.172 130.699 105.313C130.677 105.454 130.623 105.588 130.539 105.704C130.456 105.819 130.346 105.914 130.219 105.979C130.092 106.044 129.952 106.078 129.809 106.078ZM125.656 104.277H128.56L128.26 103.377H125.956L125.656 104.277Z" fill="#111625"/>
<path d="M128.909 103.377H125.307C125.118 103.377 124.934 103.317 124.781 103.207C124.627 103.096 124.513 102.94 124.453 102.761L123.552 100.06C123.507 99.9245 123.495 99.7804 123.517 99.6394C123.538 99.4983 123.593 99.3645 123.676 99.2487C123.76 99.133 123.869 99.0387 123.996 98.9737C124.123 98.9086 124.264 98.8747 124.407 98.8746H129.809C129.952 98.8747 130.092 98.9086 130.219 98.9737C130.346 99.0387 130.456 99.133 130.539 99.2487C130.623 99.3645 130.677 99.4983 130.699 99.6394C130.721 99.7804 130.708 99.9245 130.663 100.06L129.763 102.761C129.703 102.94 129.588 103.096 129.435 103.207C129.282 103.317 129.098 103.377 128.909 103.377ZM125.956 101.576H128.26L128.56 100.675H125.656L125.956 101.576Z" fill="#111625"/>
<path d="M127.108 124.086C126.869 124.086 126.64 123.991 126.471 123.822C126.302 123.653 126.207 123.424 126.207 123.186V121.385C126.207 121.146 126.302 120.917 126.471 120.748C126.64 120.579 126.869 120.484 127.108 120.484C127.347 120.484 127.576 120.579 127.745 120.748C127.913 120.917 128.008 121.146 128.008 121.385V123.186C128.008 123.424 127.913 123.653 127.745 123.822C127.576 123.991 127.347 124.086 127.108 124.086Z" fill="#111625"/>
<path d="M132.51 89.8705C132.272 89.8705 132.043 89.7756 131.874 89.6068C131.705 89.4379 131.61 89.2089 131.61 88.9701V79.966H128.909C128.67 79.966 128.441 79.8712 128.272 79.7023C128.103 79.5335 128.008 79.3044 128.008 79.0656C128.008 78.8268 128.103 78.5978 128.272 78.4289C128.441 78.2601 128.67 78.1652 128.909 78.1652H132.51C132.749 78.1652 132.978 78.2601 133.147 78.4289C133.316 78.5978 133.411 78.8268 133.411 79.0656V88.9701C133.411 89.2089 133.316 89.4379 133.147 89.6068C132.978 89.7756 132.749 89.8705 132.51 89.8705Z" fill="#111625"/>
<path d="M128.008 72.7626H126.207V75.4638H128.008V72.7626Z" fill="white"/>
<path d="M128.008 76.3644H126.207C125.969 76.3644 125.74 76.2695 125.571 76.1007C125.402 75.9318 125.307 75.7028 125.307 75.464V72.7628C125.307 72.524 125.402 72.295 125.571 72.1261C125.74 71.9572 125.969 71.8624 126.207 71.8624H128.008C128.247 71.8624 128.476 71.9572 128.645 72.1261C128.814 72.295 128.909 72.524 128.909 72.7628V75.464C128.909 75.7028 128.814 75.9318 128.645 76.1007C128.476 76.2695 128.247 76.3644 128.008 76.3644Z" fill="#111625"/>
<path d="M162.224 77.2646H155.921V84.4679H162.224V77.2646Z" fill="white"/>
<path d="M162.224 85.3685H155.921C155.682 85.3685 155.453 85.2736 155.284 85.1047C155.115 84.9359 155.02 84.7069 155.02 84.4681V77.2648C155.02 77.026 155.115 76.797 155.284 76.6281C155.453 76.4593 155.682 76.3644 155.921 76.3644H162.224C162.462 76.3644 162.692 76.4593 162.86 76.6281C163.029 76.797 163.124 77.026 163.124 77.2648V84.4681C163.124 84.7069 163.029 84.9359 162.86 85.1047C162.692 85.2736 162.462 85.3685 162.224 85.3685ZM156.821 83.5677H161.323V78.1652H156.821V83.5677Z" fill="#111625"/>
<path d="M155.921 77.2646H151.419V84.4679H155.921V77.2646Z" fill="white"/>
<path d="M155.921 85.3685H151.419C151.18 85.3685 150.951 85.2736 150.782 85.1047C150.613 84.9359 150.518 84.7069 150.518 84.4681V77.2648C150.518 77.026 150.613 76.797 150.782 76.6281C150.951 76.4593 151.18 76.3644 151.419 76.3644H155.921C156.16 76.3644 156.389 76.4593 156.558 76.6281C156.726 76.797 156.821 77.026 156.821 77.2648V84.4681C156.821 84.7069 156.726 84.9359 156.558 85.1047C156.389 85.2736 156.16 85.3685 155.921 85.3685ZM152.319 83.5677H155.02V78.1652H152.319V83.5677Z" fill="#111625"/>
<path d="M165.825 77.2646H162.224V84.4679H165.825V77.2646Z" fill="white"/>
<path d="M165.825 85.3685H162.224C161.985 85.3685 161.756 85.2736 161.587 85.1047C161.418 84.9359 161.323 84.7069 161.323 84.4681V77.2648C161.323 77.026 161.418 76.797 161.587 76.6281C161.756 76.4593 161.985 76.3644 162.224 76.3644H165.825C166.064 76.3644 166.293 76.4593 166.462 76.6281C166.631 76.797 166.726 77.026 166.726 77.2648V84.4681C166.726 84.7069 166.631 84.9359 166.462 85.1047C166.293 85.2736 166.064 85.3685 165.825 85.3685ZM163.124 83.5677H164.925V78.1652H163.124V83.5677Z" fill="#111625"/>
<path d="M128.008 18.7383H119.004V55.6549H128.008V18.7383Z" fill="white"/>
<path opacity="0.5" d="M128.008 18.7383H119.004V55.6549H128.008V18.7383Z" fill="#111625"/>
<path d="M128.008 56.5555H119.004C118.765 56.5555 118.536 56.4606 118.368 56.2918C118.199 56.1229 118.104 55.8939 118.104 55.6551V18.7384C118.104 18.4996 118.199 18.2706 118.368 18.1018C118.536 17.9329 118.765 17.838 119.004 17.838H128.008C128.247 17.838 128.476 17.9329 128.645 18.1018C128.814 18.2706 128.909 18.4996 128.909 18.7384V55.6551C128.909 55.8939 128.814 56.1229 128.645 56.2918C128.476 56.4606 128.247 56.5555 128.008 56.5555ZM119.905 54.7547H127.108V19.6388H119.905V54.7547Z" fill="#111625"/>
<path d="M126.207 60.1571H120.805L119.004 55.6551H128.008L126.207 60.1571Z" fill="white"/>
<path d="M126.207 61.0575H120.805C120.625 61.0574 120.449 61.0035 120.3 60.9026C120.151 60.8018 120.036 60.6587 119.969 60.4917L118.168 55.9896C118.113 55.853 118.093 55.7051 118.109 55.5587C118.125 55.4124 118.176 55.2722 118.259 55.1504C118.341 55.0285 118.452 54.9287 118.582 54.8598C118.712 54.7908 118.857 54.7547 119.004 54.7547H128.008C128.155 54.7547 128.3 54.7908 128.43 54.8598C128.56 54.9287 128.671 55.0285 128.754 55.1504C128.836 55.2722 128.888 55.4124 128.904 55.5587C128.919 55.7051 128.899 55.853 128.844 55.9896L127.044 60.4917C126.977 60.6587 126.861 60.8018 126.712 60.9026C126.563 61.0035 126.387 61.0574 126.207 61.0575ZM121.415 59.2567H125.598L126.678 56.5555H120.334L121.415 59.2567Z" fill="#111625"/>
<path d="M125.307 65.5595L121.705 63.7587V60.1571H125.307V65.5595Z" fill="white"/>
<path d="M125.307 66.4599C125.167 66.4599 125.029 66.4274 124.904 66.365L121.303 64.5642C121.153 64.4894 121.027 64.3744 120.939 64.2322C120.852 64.0899 120.805 63.926 120.805 63.7587V60.1571C120.805 59.9183 120.9 59.6893 121.069 59.5204C121.238 59.3516 121.467 59.2567 121.705 59.2567H125.307C125.546 59.2567 125.775 59.3516 125.944 59.5204C126.113 59.6893 126.207 59.9183 126.207 60.1571V65.5595C126.207 65.6778 126.184 65.7949 126.139 65.9041C126.094 66.0134 126.027 66.1126 125.944 66.1962C125.86 66.2799 125.761 66.3462 125.652 66.3914C125.542 66.4367 125.425 66.46 125.307 66.4599ZM122.606 63.2021L124.407 64.1025V61.0575H122.606V63.2021Z" fill="#111625"/>
<path d="M127.108 15.1366H119.905V18.7383H127.108V15.1366Z" fill="white"/>
<path d="M127.108 19.6388H119.905C119.666 19.6388 119.437 19.544 119.268 19.3751C119.099 19.2063 119.004 18.9772 119.004 18.7384V15.1368C119.004 14.898 119.099 14.669 119.268 14.5001C119.437 14.3313 119.666 14.2364 119.905 14.2364H127.108C127.347 14.2364 127.576 14.3313 127.745 14.5001C127.913 14.669 128.008 14.898 128.008 15.1368V18.7384C128.008 18.9772 127.913 19.2063 127.745 19.3751C127.576 19.544 127.347 19.6388 127.108 19.6388ZM120.805 17.838H126.207V16.0372H120.805V17.838Z" fill="#111625"/>
<path d="M119.004 72.7626H111.801V123.185H119.004V72.7626Z" fill="white"/>
<path opacity="0.5" d="M119.004 72.7626H111.801V76.3642H119.004V72.7626Z" fill="#111625"/>
<path opacity="0.5" d="M119.004 119.584H111.801V123.185H119.004V119.584Z" fill="#111625"/>
<path d="M119.004 111.48H111.801C111.562 111.48 111.333 111.385 111.164 111.217C110.995 111.048 110.901 110.819 110.901 110.58V85.3685C110.901 85.1297 110.995 84.9006 111.164 84.7318C111.333 84.5629 111.562 84.4681 111.801 84.4681H119.004C119.243 84.4681 119.472 84.5629 119.641 84.7318C119.81 84.9006 119.905 85.1297 119.905 85.3685V110.58C119.905 110.819 119.81 111.048 119.641 111.217C119.472 111.385 119.243 111.48 119.004 111.48ZM112.701 109.679H118.104V86.2689H112.701V109.679Z" fill="#111625"/>
<path d="M119.004 86.2689H111.801C111.562 86.2689 111.333 86.174 111.164 86.0052C110.995 85.8363 110.901 85.6073 110.901 85.3685V72.7628C110.901 72.524 110.995 72.295 111.164 72.1261C111.333 71.9572 111.562 71.8624 111.801 71.8624H119.004C119.243 71.8624 119.472 71.9572 119.641 72.1261C119.81 72.295 119.905 72.524 119.905 72.7628V85.3685C119.905 85.6073 119.81 85.8363 119.641 86.0052C119.472 86.174 119.243 86.2689 119.004 86.2689ZM112.701 84.4681H118.104V73.6632H112.701V84.4681Z" fill="#111625"/>
<path d="M119.004 124.086H111.801C111.562 124.086 111.333 123.991 111.164 123.822C110.995 123.653 110.901 123.424 110.901 123.186V110.58C110.901 110.341 110.995 110.112 111.164 109.943C111.333 109.774 111.562 109.679 111.801 109.679H119.004C119.243 109.679 119.472 109.774 119.641 109.943C119.81 110.112 119.905 110.341 119.905 110.58V123.186C119.905 123.424 119.81 123.653 119.641 123.822C119.472 123.991 119.243 124.086 119.004 124.086ZM112.701 122.285H118.104V111.48H112.701V122.285Z" fill="#111625"/>
<path d="M108.199 72.7626H100.996V123.185H108.199V72.7626Z" fill="white"/>
<path opacity="0.5" d="M108.199 72.7626H100.996V76.3642H108.199V72.7626Z" fill="#111625"/>
<path opacity="0.5" d="M108.199 119.584H100.996V123.185H108.199V119.584Z" fill="#111625"/>
<path d="M108.199 111.48H100.996C100.757 111.48 100.528 111.385 100.359 111.217C100.191 111.048 100.096 110.819 100.096 110.58V85.3685C100.096 85.1297 100.191 84.9006 100.359 84.7318C100.528 84.5629 100.757 84.4681 100.996 84.4681H108.199C108.438 84.4681 108.667 84.5629 108.836 84.7318C109.005 84.9006 109.1 85.1297 109.1 85.3685V110.58C109.1 110.819 109.005 111.048 108.836 111.217C108.667 111.385 108.438 111.48 108.199 111.48ZM101.897 109.679H107.299V86.2689H101.897V109.679Z" fill="#111625"/>
<path d="M108.199 86.2689H100.996C100.757 86.2689 100.528 86.174 100.359 86.0052C100.191 85.8363 100.096 85.6073 100.096 85.3685V72.7628C100.096 72.524 100.191 72.295 100.359 72.1261C100.528 71.9572 100.757 71.8624 100.996 71.8624H108.199C108.438 71.8624 108.667 71.9572 108.836 72.1261C109.005 72.295 109.1 72.524 109.1 72.7628V85.3685C109.1 85.6073 109.005 85.8363 108.836 86.0052C108.667 86.174 108.438 86.2689 108.199 86.2689ZM101.897 84.4681H107.299V73.6632H101.897V84.4681Z" fill="#111625"/>
<path d="M108.199 124.086H100.996C100.757 124.086 100.528 123.991 100.359 123.822C100.191 123.653 100.096 123.424 100.096 123.186V110.58C100.096 110.341 100.191 110.112 100.359 109.943C100.528 109.774 100.757 109.679 100.996 109.679H108.199C108.438 109.679 108.667 109.774 108.836 109.943C109.005 110.112 109.1 110.341 109.1 110.58V123.186C109.1 123.424 109.005 123.653 108.836 123.822C108.667 123.991 108.438 124.086 108.199 124.086ZM101.897 122.285H107.299V111.48H101.897V122.285Z" fill="#111625"/>
<path d="M97.3944 72.7626H90.1912V123.185H97.3944V72.7626Z" fill="white"/>
<path opacity="0.5" d="M97.3944 72.7626H90.1912V76.3642H97.3944V72.7626Z" fill="#111625"/>
<path opacity="0.5" d="M97.3944 119.584H90.1912V123.185H97.3944V119.584Z" fill="#111625"/>
<path d="M97.3944 111.48H90.1912C89.9524 111.48 89.7234 111.385 89.5545 111.217C89.3856 111.048 89.2908 110.819 89.2908 110.58V85.3685C89.2908 85.1297 89.3856 84.9006 89.5545 84.7318C89.7234 84.5629 89.9524 84.4681 90.1912 84.4681H97.3944C97.6332 84.4681 97.8622 84.5629 98.0311 84.7318C98.2 84.9006 98.2948 85.1297 98.2948 85.3685V110.58C98.2948 110.819 98.2 111.048 98.0311 111.217C97.8622 111.385 97.6332 111.48 97.3944 111.48ZM91.0916 109.679H96.494V86.2689H91.0916V109.679Z" fill="#111625"/>
<path d="M97.3944 86.2689H90.1912C89.9524 86.2689 89.7234 86.174 89.5545 86.0052C89.3856 85.8363 89.2908 85.6073 89.2908 85.3685V72.7628C89.2908 72.524 89.3856 72.295 89.5545 72.1261C89.7234 71.9572 89.9524 71.8624 90.1912 71.8624H97.3944C97.6332 71.8624 97.8622 71.9572 98.0311 72.1261C98.2 72.295 98.2948 72.524 98.2948 72.7628V85.3685C98.2948 85.6073 98.2 85.8363 98.0311 86.0052C97.8622 86.174 97.6332 86.2689 97.3944 86.2689ZM91.0916 84.4681H96.494V73.6632H91.0916V84.4681Z" fill="#111625"/>
<path d="M97.3944 124.086H90.1912C89.9524 124.086 89.7234 123.991 89.5545 123.822C89.3856 123.653 89.2908 123.424 89.2908 123.186V110.58C89.2908 110.341 89.3856 110.112 89.5545 109.943C89.7234 109.774 89.9524 109.679 90.1912 109.679H97.3944C97.6332 109.679 97.8622 109.774 98.0311 109.943C98.2 110.112 98.2948 110.341 98.2948 110.58V123.186C98.2948 123.424 98.2 123.653 98.0311 123.822C97.8622 123.991 97.6332 124.086 97.3944 124.086ZM91.0916 122.285H96.494V111.48H91.0916V122.285Z" fill="#111625"/>
<path d="M86.5895 72.7626H79.3863V123.185H86.5895V72.7626Z" fill="white"/>
<path opacity="0.5" d="M86.5895 72.7626H79.3863V76.3642H86.5895V72.7626Z" fill="#111625"/>
<path opacity="0.5" d="M86.5895 119.584H79.3863V123.185H86.5895V119.584Z" fill="#111625"/>
<path d="M86.5896 111.48H79.3863C79.1475 111.48 78.9185 111.385 78.7496 111.217C78.5808 111.048 78.4859 110.819 78.4859 110.58V85.3685C78.4859 85.1297 78.5808 84.9006 78.7496 84.7318C78.9185 84.5629 79.1475 84.4681 79.3863 84.4681H86.5896C86.8284 84.4681 87.0574 84.5629 87.2262 84.7318C87.3951 84.9006 87.49 85.1297 87.49 85.3685V110.58C87.49 110.819 87.3951 111.048 87.2262 111.217C87.0574 111.385 86.8284 111.48 86.5896 111.48ZM80.2867 109.679H85.6891V86.2689H80.2867V109.679Z" fill="#111625"/>
<path d="M86.5896 86.2689H79.3863C79.1475 86.2689 78.9185 86.174 78.7496 86.0052C78.5808 85.8363 78.4859 85.6073 78.4859 85.3685V72.7628C78.4859 72.524 78.5808 72.295 78.7496 72.1261C78.9185 71.9572 79.1475 71.8624 79.3863 71.8624H86.5896C86.8284 71.8624 87.0574 71.9572 87.2262 72.1261C87.3951 72.295 87.49 72.524 87.49 72.7628V85.3685C87.49 85.6073 87.3951 85.8363 87.2262 86.0052C87.0574 86.174 86.8284 86.2689 86.5896 86.2689ZM80.2867 84.4681H85.6891V73.6632H80.2867V84.4681Z" fill="#111625"/>
<path d="M86.5896 124.086H79.3863C79.1475 124.086 78.9185 123.991 78.7496 123.822C78.5808 123.653 78.4859 123.424 78.4859 123.186V110.58C78.4859 110.341 78.5808 110.112 78.7496 109.943C78.9185 109.774 79.1475 109.679 79.3863 109.679H86.5896C86.8284 109.679 87.0574 109.774 87.2262 109.943C87.3951 110.112 87.49 110.341 87.49 110.58V123.186C87.49 123.424 87.3951 123.653 87.2262 123.822C87.0574 123.991 86.8284 124.086 86.5896 124.086ZM80.2867 122.285H85.6891V111.48H80.2867V122.285Z" fill="#111625"/>
<path d="M75.7847 72.7626H68.5814V123.185H75.7847V72.7626Z" fill="white"/>
<path opacity="0.5" d="M75.7847 72.7626H68.5814V76.3642H75.7847V72.7626Z" fill="#111625"/>
<path opacity="0.5" d="M75.7847 119.584H68.5814V123.185H75.7847V119.584Z" fill="#111625"/>
<path d="M75.7847 111.48H68.5814C68.3426 111.48 68.1136 111.385 67.9448 111.217C67.7759 111.048 67.681 110.819 67.681 110.58V85.3685C67.681 85.1297 67.7759 84.9006 67.9448 84.7318C68.1136 84.5629 68.3426 84.4681 68.5814 84.4681H75.7847C76.0235 84.4681 76.2525 84.5629 76.4214 84.7318C76.5902 84.9006 76.6851 85.1297 76.6851 85.3685V110.58C76.6851 110.819 76.5902 111.048 76.4214 111.217C76.2525 111.385 76.0235 111.48 75.7847 111.48ZM69.4818 109.679H74.8843V86.2689H69.4818V109.679Z" fill="#111625"/>
<path d="M75.7847 86.2689H68.5814C68.3426 86.2689 68.1136 86.174 67.9448 86.0052C67.7759 85.8363 67.681 85.6073 67.681 85.3685V72.7628C67.681 72.524 67.7759 72.295 67.9448 72.1261C68.1136 71.9572 68.3426 71.8624 68.5814 71.8624H75.7847C76.0235 71.8624 76.2525 71.9572 76.4214 72.1261C76.5902 72.295 76.6851 72.524 76.6851 72.7628V85.3685C76.6851 85.6073 76.5902 85.8363 76.4214 86.0052C76.2525 86.174 76.0235 86.2689 75.7847 86.2689ZM69.4818 84.4681H74.8843V73.6632H69.4818V84.4681Z" fill="#111625"/>
<path d="M75.7847 124.086H68.5814C68.3426 124.086 68.1136 123.991 67.9448 123.822C67.7759 123.653 67.681 123.424 67.681 123.186V110.58C67.681 110.341 67.7759 110.112 67.9448 109.943C68.1136 109.774 68.3426 109.679 68.5814 109.679H75.7847C76.0235 109.679 76.2525 109.774 76.4214 109.943C76.5902 110.112 76.6851 110.341 76.6851 110.58V123.186C76.6851 123.424 76.5902 123.653 76.4214 123.822C76.2525 123.991 76.0235 124.086 75.7847 124.086ZM69.4818 122.285H74.8843V111.48H69.4818V122.285Z" fill="#111625"/>
<path d="M140.614 18.7383H131.61V55.6549H140.614V18.7383Z" fill="white"/>
<path opacity="0.5" d="M140.614 18.7383H131.61V55.6549H140.614V18.7383Z" fill="#111625"/>
<path d="M140.614 56.5555H131.61C131.371 56.5555 131.142 56.4606 130.973 56.2918C130.804 56.1229 130.709 55.8939 130.709 55.6551V18.7384C130.709 18.4996 130.804 18.2706 130.973 18.1018C131.142 17.9329 131.371 17.838 131.61 17.838H140.614C140.853 17.838 141.082 17.9329 141.251 18.1018C141.419 18.2706 141.514 18.4996 141.514 18.7384V55.6551C141.514 55.8939 141.419 56.1229 141.251 56.2918C141.082 56.4606 140.853 56.5555 140.614 56.5555ZM132.51 54.7547H139.714V19.6388H132.51V54.7547Z" fill="#111625"/>
<path d="M138.813 60.1571H133.411L131.61 55.6551H140.614L138.813 60.1571Z" fill="white"/>
<path d="M138.813 61.0575H133.411C133.231 61.0574 133.055 61.0035 132.906 60.9026C132.757 60.8018 132.641 60.6587 132.574 60.4917L130.774 55.9896C130.719 55.853 130.699 55.7051 130.715 55.5587C130.73 55.4124 130.782 55.2722 130.864 55.1504C130.947 55.0285 131.058 54.9287 131.188 54.8598C131.318 54.7908 131.463 54.7547 131.61 54.7547H140.614C140.761 54.7547 140.906 54.7908 141.036 54.8598C141.166 54.9287 141.277 55.0285 141.36 55.1504C141.442 55.2722 141.494 55.4124 141.509 55.5587C141.525 55.7051 141.505 55.853 141.45 55.9896L139.649 60.4917C139.582 60.6587 139.467 60.8018 139.318 60.9026C139.169 61.0035 138.993 61.0574 138.813 61.0575ZM134.021 59.2567H138.203L139.284 56.5555H132.94L134.021 59.2567Z" fill="#111625"/>
<path d="M137.913 65.5595L134.311 63.7587V60.1571H137.913V65.5595Z" fill="white"/>
<path d="M137.913 66.4599C137.773 66.4599 137.635 66.4274 137.51 66.365L133.908 64.5642C133.759 64.4894 133.633 64.3744 133.545 64.2322C133.457 64.0899 133.411 63.926 133.411 63.7587V60.1571C133.411 59.9183 133.506 59.6893 133.674 59.5204C133.843 59.3516 134.072 59.2567 134.311 59.2567H137.913C138.152 59.2567 138.381 59.3516 138.549 59.5204C138.718 59.6893 138.813 59.9183 138.813 60.1571V65.5595C138.813 65.6778 138.79 65.7949 138.745 65.9041C138.699 66.0134 138.633 66.1126 138.549 66.1962C138.466 66.2799 138.367 66.3462 138.257 66.3914C138.148 66.4367 138.031 66.46 137.913 66.4599ZM135.212 63.2021L137.012 64.1025V61.0575H135.212V63.2021Z" fill="#111625"/>
<path d="M139.714 15.1366H132.51V18.7383H139.714V15.1366Z" fill="white"/>
<path d="M139.714 19.6388H132.51C132.272 19.6388 132.043 19.544 131.874 19.3751C131.705 19.2063 131.61 18.9772 131.61 18.7384V15.1368C131.61 14.898 131.705 14.669 131.874 14.5001C132.043 14.3313 132.272 14.2364 132.51 14.2364H139.714C139.952 14.2364 140.181 14.3313 140.35 14.5001C140.519 14.669 140.614 14.898 140.614 15.1368V18.7384C140.614 18.9772 140.519 19.2063 140.35 19.3751C140.181 19.544 139.952 19.6388 139.714 19.6388ZM133.411 17.838H138.813V16.0372H133.411V17.838Z" fill="#111625"/>
<path d="M153.22 18.7383H144.216V55.6549H153.22V18.7383Z" fill="white"/>
<path opacity="0.3" d="M153.22 18.7383H144.216V55.6549H153.22V18.7383Z" fill="#111625"/>
<path d="M153.22 56.5555H144.216C143.977 56.5555 143.748 56.4606 143.579 56.2918C143.41 56.1229 143.315 55.8939 143.315 55.6551V18.7384C143.315 18.4996 143.41 18.2706 143.579 18.1018C143.748 17.9329 143.977 17.838 144.216 17.838H153.22C153.458 17.838 153.687 17.9329 153.856 18.1018C154.025 18.2706 154.12 18.4996 154.12 18.7384V55.6551C154.12 55.8939 154.025 56.1229 153.856 56.2918C153.687 56.4606 153.458 56.5555 153.22 56.5555ZM145.116 54.7547H152.319V19.6388H145.116V54.7547Z" fill="#111625"/>
<path d="M151.419 60.1571H146.016L144.216 55.6551H153.22L151.419 60.1571Z" fill="white"/>
<path d="M151.419 61.0575H146.016C145.836 61.0574 145.661 61.0035 145.512 60.9026C145.363 60.8018 145.247 60.6587 145.18 60.4917L143.379 55.9896C143.325 55.853 143.304 55.7051 143.32 55.5587C143.336 55.4124 143.387 55.2722 143.47 55.1504C143.552 55.0285 143.664 54.9287 143.793 54.8598C143.923 54.7908 144.068 54.7547 144.216 54.7547H153.22C153.367 54.7547 153.512 54.7908 153.642 54.8598C153.772 54.9287 153.883 55.0285 153.965 55.1504C154.048 55.2722 154.099 55.4124 154.115 55.5587C154.131 55.7051 154.11 55.853 154.056 55.9896L152.255 60.4917C152.188 60.6587 152.073 60.8018 151.924 60.9026C151.775 61.0035 151.599 61.0574 151.419 61.0575ZM146.626 59.2567H150.809L151.89 56.5555H145.545L146.626 59.2567Z" fill="#111625"/>
<path d="M150.518 65.5595L146.917 63.7587V60.1571H150.518V65.5595Z" fill="white"/>
<path d="M150.518 66.4599C150.379 66.4599 150.241 66.4274 150.116 66.365L146.514 64.5642C146.365 64.4894 146.239 64.3744 146.151 64.2322C146.063 64.0899 146.016 63.926 146.016 63.7587V60.1571C146.016 59.9183 146.111 59.6893 146.28 59.5204C146.449 59.3516 146.678 59.2567 146.917 59.2567H150.518C150.757 59.2567 150.986 59.3516 151.155 59.5204C151.324 59.6893 151.419 59.9183 151.419 60.1571V65.5595C151.419 65.6778 151.396 65.7949 151.35 65.9041C151.305 66.0134 151.239 66.1126 151.155 66.1962C151.072 66.2799 150.972 66.3462 150.863 66.3914C150.754 66.4367 150.637 66.46 150.518 66.4599ZM147.817 63.2021L149.618 64.1025V61.0575H147.817V63.2021Z" fill="#111625"/>
<path d="M152.319 15.1366H145.116V18.7383H152.319V15.1366Z" fill="white"/>
<path d="M152.319 19.6388H145.116C144.877 19.6388 144.648 19.544 144.479 19.3751C144.31 19.2063 144.216 18.9772 144.216 18.7384V15.1368C144.216 14.898 144.31 14.669 144.479 14.5001C144.648 14.3313 144.877 14.2364 145.116 14.2364H152.319C152.558 14.2364 152.787 14.3313 152.956 14.5001C153.125 14.669 153.22 14.898 153.22 15.1368V18.7384C153.22 18.9772 153.125 19.2063 152.956 19.3751C152.787 19.544 152.558 19.6388 152.319 19.6388ZM146.016 17.838H151.419V16.0372H146.016V17.838Z" fill="#111625"/>
<path d="M165.825 18.7383H156.821V55.6549H165.825V18.7383Z" fill="white"/>
<path opacity="0.3" d="M165.825 18.7383H156.821V55.6549H165.825V18.7383Z" fill="#111625"/>
<path d="M165.825 56.5555H156.821C156.582 56.5555 156.353 56.4606 156.185 56.2918C156.016 56.1229 155.921 55.8939 155.921 55.6551V18.7384C155.921 18.4996 156.016 18.2706 156.185 18.1018C156.353 17.9329 156.582 17.838 156.821 17.838H165.825C166.064 17.838 166.293 17.9329 166.462 18.1018C166.631 18.2706 166.726 18.4996 166.726 18.7384V55.6551C166.726 55.8939 166.631 56.1229 166.462 56.2918C166.293 56.4606 166.064 56.5555 165.825 56.5555ZM157.722 54.7547H164.925V19.6388H157.722V54.7547Z" fill="#111625"/>
<path d="M164.025 60.1571H158.622L156.821 55.6551H165.825L164.025 60.1571Z" fill="white"/>
<path d="M164.025 61.0575H158.622C158.442 61.0574 158.266 61.0035 158.117 60.9026C157.968 60.8018 157.853 60.6587 157.786 60.4917L155.985 55.9896C155.93 55.853 155.91 55.7051 155.926 55.5587C155.942 55.4124 155.993 55.2722 156.076 55.1504C156.158 55.0285 156.269 54.9287 156.399 54.8598C156.529 54.7908 156.674 54.7547 156.821 54.7547H165.825C165.972 54.7547 166.117 54.7908 166.247 54.8598C166.377 54.9287 166.488 55.0285 166.571 55.1504C166.653 55.2722 166.705 55.4124 166.721 55.5587C166.736 55.7051 166.716 55.853 166.662 55.9896L164.861 60.4917C164.794 60.6587 164.678 60.8018 164.529 60.9026C164.38 61.0035 164.204 61.0574 164.025 61.0575ZM159.232 59.2567H163.415L164.495 56.5555H158.151L159.232 59.2567Z" fill="#111625"/>
<path d="M163.124 65.5595L159.522 63.7587V60.1571H163.124V65.5595Z" fill="white"/>
<path d="M163.124 66.4599C162.984 66.4599 162.846 66.4274 162.721 66.365L159.12 64.5642C158.97 64.4894 158.844 64.3744 158.756 64.2322C158.669 64.0899 158.622 63.926 158.622 63.7587V60.1571C158.622 59.9183 158.717 59.6893 158.886 59.5204C159.055 59.3516 159.284 59.2567 159.522 59.2567H163.124C163.363 59.2567 163.592 59.3516 163.761 59.5204C163.93 59.6893 164.025 59.9183 164.025 60.1571V65.5595C164.025 65.6778 164.001 65.7949 163.956 65.9041C163.911 66.0134 163.844 66.1126 163.761 66.1962C163.677 66.2799 163.578 66.3462 163.469 66.3914C163.359 66.4367 163.242 66.46 163.124 66.4599ZM160.423 63.2021L162.224 64.1025V61.0575H160.423V63.2021Z" fill="#111625"/>
<path d="M164.925 15.1366H157.722V18.7383H164.925V15.1366Z" fill="white"/>
<path d="M164.925 19.6388H157.722C157.483 19.6388 157.254 19.544 157.085 19.3751C156.916 19.2063 156.821 18.9772 156.821 18.7384V15.1368C156.821 14.898 156.916 14.669 157.085 14.5001C157.254 14.3313 157.483 14.2364 157.722 14.2364H164.925C165.164 14.2364 165.393 14.3313 165.562 14.5001C165.73 14.669 165.825 14.898 165.825 15.1368V18.7384C165.825 18.9772 165.73 19.2063 165.562 19.3751C165.393 19.544 165.164 19.6388 164.925 19.6388ZM158.622 17.838H164.025V16.0372H158.622V17.838Z" fill="#111625"/>
<path d="M178.431 18.7383H169.427V55.6549H178.431V18.7383Z" fill="white"/>
<path d="M178.431 56.5555H169.427C169.188 56.5555 168.959 56.4606 168.79 56.2918C168.621 56.1229 168.527 55.8939 168.527 55.6551V18.7384C168.527 18.4996 168.621 18.2706 168.79 18.1018C168.959 17.9329 169.188 17.838 169.427 17.838H178.431C178.67 17.838 178.899 17.9329 179.068 18.1018C179.237 18.2706 179.331 18.4996 179.331 18.7384V55.6551C179.331 55.8939 179.237 56.1229 179.068 56.2918C178.899 56.4606 178.67 56.5555 178.431 56.5555ZM170.327 54.7547H177.531V19.6388H170.327V54.7547Z" fill="#111625"/>
<path d="M176.63 60.1571H171.228L169.427 55.6551H178.431L176.63 60.1571Z" fill="white"/>
<path d="M176.63 61.0575H171.228C171.048 61.0574 170.872 61.0035 170.723 60.9026C170.574 60.8018 170.459 60.6587 170.392 60.4917L168.591 55.9896C168.536 55.853 168.516 55.7051 168.532 55.5587C168.547 55.4124 168.599 55.2722 168.681 55.1504C168.764 55.0285 168.875 54.9287 169.005 54.8598C169.135 54.7908 169.28 54.7547 169.427 54.7547H178.431C178.578 54.7547 178.723 54.7908 178.853 54.8598C178.983 54.9287 179.094 55.0285 179.177 55.1504C179.259 55.2722 179.311 55.4124 179.326 55.5587C179.342 55.7051 179.322 55.853 179.267 55.9896L177.466 60.4917C177.399 60.6587 177.284 60.8018 177.135 60.9026C176.986 61.0035 176.81 61.0574 176.63 61.0575ZM171.838 59.2567H176.02L177.101 56.5555H170.757L171.838 59.2567Z" fill="#111625"/>
<path d="M175.73 65.5595L172.128 63.7587V60.1571H175.73V65.5595Z" fill="white"/>
<path d="M175.73 66.4599C175.59 66.4599 175.452 66.4274 175.327 66.365L171.725 64.5642C171.576 64.4894 171.45 64.3744 171.362 64.2322C171.274 64.0899 171.228 63.926 171.228 63.7587V60.1571C171.228 59.9183 171.323 59.6893 171.492 59.5204C171.66 59.3516 171.889 59.2567 172.128 59.2567H175.73C175.969 59.2567 176.198 59.3516 176.366 59.5204C176.535 59.6893 176.63 59.9183 176.63 60.1571V65.5595C176.63 65.6778 176.607 65.7949 176.562 65.9041C176.516 66.0134 176.45 66.1126 176.367 66.1962C176.283 66.2799 176.184 66.3462 176.074 66.3914C175.965 66.4367 175.848 66.46 175.73 66.4599ZM173.029 63.2021L174.829 64.1025V61.0575H173.029V63.2021Z" fill="#111625"/>
<path d="M177.531 15.1366H170.327V18.7383H177.531V15.1366Z" fill="white"/>
<path d="M177.531 19.6388H170.327C170.089 19.6388 169.86 19.544 169.691 19.3751C169.522 19.2063 169.427 18.9772 169.427 18.7384V15.1368C169.427 14.898 169.522 14.669 169.691 14.5001C169.86 14.3313 170.089 14.2364 170.327 14.2364H177.531C177.769 14.2364 177.998 14.3313 178.167 14.5001C178.336 14.669 178.431 14.898 178.431 15.1368V18.7384C178.431 18.9772 178.336 19.2063 178.167 19.3751C177.998 19.544 177.769 19.6388 177.531 19.6388ZM171.228 17.838H176.63V16.0372H171.228V17.838Z" fill="#111625"/>
</g>
<path d="M95.0233 109H31.0233C27.8407 109 24.7885 107.736 22.538 105.485C20.2876 103.235 19.0233 100.183 19.0233 97C19.0233 93.8174 20.2876 90.7652 22.538 88.5147C24.7885 86.2643 27.8407 85 31.0233 85H95.0233C96.0842 85 97.1016 85.4215 97.8517 86.1716C98.6019 86.9217 99.0233 87.9391 99.0233 89V105C99.0233 106.061 98.6019 107.078 97.8517 107.828C97.1016 108.579 96.0842 109 95.0233 109Z" fill="white"/>
<path d="M51.0233 103V91H41.0233V103H51.0233Z" fill="white"/>
<path d="M65.0233 103V91H55.0233V103H65.0233Z" fill="#75C725" fill-opacity="0.2"/>
<path d="M79.0233 103V91H69.0233V103H79.0233Z" fill="#75C725" fill-opacity="0.6"/>
<path d="M93.0233 103V91H83.0233V103H93.0233Z" fill="#75C725"/>
<path d="M51.0233 104H41.0233C40.7581 104 40.5037 103.895 40.3162 103.707C40.1287 103.52 40.0233 103.265 40.0233 103V91C40.0233 90.7348 40.1287 90.4804 40.3162 90.2929C40.5037 90.1054 40.7581 90 41.0233 90H51.0233C51.2885 90 51.5429 90.1054 51.7304 90.2929C51.918 90.4804 52.0233 90.7348 52.0233 91V103C52.0233 103.265 51.918 103.52 51.7304 103.707C51.5429 103.895 51.2885 104 51.0233 104ZM42.0233 102H50.0233V92H42.0233V102Z" fill="#111625"/>
<path d="M92.9899 104.198H82.9899C82.7247 104.198 82.4703 104.093 82.2828 103.905C82.0952 103.718 81.9899 103.463 81.9899 103.198V91.1982C81.9899 90.9329 82.0952 90.6786 82.2828 90.4911C82.4703 90.3035 82.7247 90.1982 82.9899 90.1982H92.9899C93.2551 90.1982 93.5094 90.3035 93.697 90.4911C93.8845 90.6786 93.9899 90.9329 93.9899 91.1982V103.198C93.9899 103.463 93.8845 103.718 93.697 103.905C93.5094 104.093 93.2551 104.198 92.9899 104.198ZM83.9899 102.198H91.9899V92.1982H83.9899V102.198Z" fill="#111625"/>
<path d="M95.0233 110H31.0233C27.5755 110 24.2689 108.63 21.8309 106.192C19.393 103.754 18.0233 100.448 18.0233 97C18.0233 93.5522 19.393 90.2456 21.8309 87.8076C24.2689 85.3696 27.5755 84 31.0233 84H95.0233C96.3489 84.0016 97.6198 84.5288 98.5571 85.4662C99.4945 86.4035 100.022 87.6744 100.023 89V105C100.022 106.326 99.4945 107.596 98.5571 108.534C97.6198 109.471 96.3489 109.998 95.0233 110ZM31.0233 86C28.1059 86 25.308 87.1589 23.2451 89.2218C21.1822 91.2847 20.0233 94.0826 20.0233 97C20.0233 99.9174 21.1822 102.715 23.2451 104.778C25.308 106.841 28.1059 108 31.0233 108H95.0233C95.8187 107.999 96.5813 107.683 97.1437 107.12C97.7061 106.558 98.0224 105.795 98.0233 105V89C98.0224 88.2046 97.7061 87.4421 97.1437 86.8796C96.5813 86.3172 95.8187 86.0009 95.0233 86H31.0233Z" fill="#111625"/>
<path d="M31.0233 103C34.337 103 37.0233 100.314 37.0233 96.9999C37.0233 93.6862 34.337 90.9999 31.0233 90.9999C27.7096 90.9999 25.0233 93.6862 25.0233 96.9999C25.0233 100.314 27.7096 103 31.0233 103Z" fill="white"/>
<path d="M31.0233 104C29.6388 104 28.2855 103.589 27.1343 102.82C25.9832 102.051 25.086 100.958 24.5562 99.6788C24.0263 98.3997 23.8877 96.9922 24.1578 95.6344C24.4279 94.2765 25.0946 93.0292 26.0736 92.0503C27.0525 91.0713 28.2998 90.4046 29.6577 90.1345C31.0156 89.8644 32.423 90.003 33.7021 90.5328C34.9812 91.0627 36.0744 91.9599 36.8436 93.111C37.6128 94.2622 38.0233 95.6155 38.0233 97C38.0212 98.8559 37.2831 100.635 35.9708 101.947C34.6585 103.26 32.8792 103.998 31.0233 104ZM31.0233 92C30.0344 92 29.0677 92.2932 28.2455 92.8427C27.4232 93.3921 26.7824 94.173 26.4039 95.0866C26.0255 96.0002 25.9265 97.0055 26.1194 97.9754C26.3123 98.9454 26.7885 99.8363 27.4878 100.536C28.187 101.235 29.078 101.711 30.0479 101.904C31.0178 102.097 32.0231 101.998 32.9367 101.619C33.8504 101.241 34.6313 100.6 35.1807 99.7779C35.7301 98.9556 36.0233 97.9889 36.0233 97C36.0218 95.6744 35.4945 94.4035 34.5571 93.4662C33.6198 92.5288 32.3489 92.0016 31.0233 92Z" fill="#75859E"/>
<path d="M31.0233 98.9999C32.1279 98.9999 33.0233 98.1045 33.0233 96.9999C33.0233 95.8953 32.1279 94.9999 31.0233 94.9999C29.9187 94.9999 29.0233 95.8953 29.0233 96.9999C29.0233 98.1045 29.9187 98.9999 31.0233 98.9999Z" fill="#75859E"/>
<path d="M31.0233 100C30.43 100 29.85 99.824 29.3566 99.4944C28.8633 99.1648 28.4787 98.6962 28.2517 98.148C28.0246 97.5999 27.9652 96.9967 28.081 96.4147C28.1967 95.8328 28.4824 95.2982 28.902 94.8787C29.3216 94.4591 29.8561 94.1734 30.438 94.0576C31.02 93.9419 31.6232 94.0013 32.1714 94.2284C32.7195 94.4554 33.1881 94.8399 33.5177 95.3333C33.8474 95.8266 34.0233 96.4067 34.0233 97C34.0224 97.7954 33.7061 98.5579 33.1437 99.1204C32.5813 99.6828 31.8187 99.9991 31.0233 100ZM31.0233 96C30.8255 96 30.6322 96.0587 30.4677 96.1685C30.3033 96.2784 30.1751 96.4346 30.0994 96.6173C30.0238 96.8 30.0039 97.0011 30.0425 97.1951C30.0811 97.3891 30.1764 97.5673 30.3162 97.7071C30.4561 97.847 30.6342 97.9422 30.8282 97.9808C31.0222 98.0194 31.2233 97.9996 31.406 97.9239C31.5887 97.8482 31.7449 97.72 31.8548 97.5556C31.9647 97.3911 32.0233 97.1978 32.0233 97C32.023 96.7349 31.9175 96.4807 31.73 96.2933C31.5426 96.1058 31.2884 96.0003 31.0233 96Z" fill="#75859E"/>
<path d="M65.0233 104H55.0233C54.7581 104 54.5037 103.895 54.3162 103.707C54.1287 103.52 54.0233 103.265 54.0233 103V91C54.0233 90.7348 54.1287 90.4804 54.3162 90.2929C54.5037 90.1054 54.7581 90 55.0233 90H65.0233C65.2885 90 65.5429 90.1054 65.7304 90.2929C65.918 90.4804 66.0233 90.7348 66.0233 91V103C66.0233 103.265 65.918 103.52 65.7304 103.707C65.5429 103.895 65.2885 104 65.0233 104ZM56.0233 102H64.0233V92H56.0233V102Z" fill="#111625"/>
<path d="M79.0233 104H69.0233C68.7581 104 68.5037 103.895 68.3162 103.707C68.1287 103.52 68.0233 103.265 68.0233 103V91C68.0233 90.7348 68.1287 90.4804 68.3162 90.2929C68.5037 90.1054 68.7581 90 69.0233 90H79.0233C79.2885 90 79.5429 90.1054 79.7304 90.2929C79.918 90.4804 80.0233 90.7348 80.0233 91V103C80.0233 103.265 79.918 103.52 79.7304 103.707C79.5429 103.895 79.2885 104 79.0233 104ZM70.0233 102H78.0233V92H70.0233V102Z" fill="#111625"/>
<path d="M92.426 75.3903L37.0003 107.39C35.6356 108.178 34.129 108.69 32.5667 108.895C31.0043 109.101 29.4167 108.997 27.8946 108.589C26.3724 108.181 24.9455 107.478 23.6953 106.518C22.4451 105.559 21.396 104.363 20.6081 102.998C19.0168 100.242 18.5855 96.9663 19.4092 93.8922C20.2329 90.818 22.2441 88.197 25.0003 86.6057L80.426 54.6057C81.3448 54.0753 82.4366 53.9315 83.4613 54.2061C84.486 54.4807 85.3597 55.1511 85.8901 56.0698L93.8901 69.9262C94.4206 70.8449 94.5643 71.9368 94.2897 72.9615C94.0152 73.9862 93.3448 74.8599 92.426 75.3903Z" fill="white"/>
<path d="M63.4452 85.1942L57.4453 74.8018L48.785 79.8018L54.785 90.1942L63.4452 85.1942Z" fill="#75C725" fill-opacity="0.2"/>
<path d="M75.5696 78.1942L69.5696 67.8018L60.9093 72.8018L66.9093 83.1942L75.5696 78.1942Z" fill="#75C725" fill-opacity="0.6"/>
<path d="M51.3209 92.1942L45.3209 81.8018L36.6606 86.8018L42.6606 97.1942L51.3209 92.1942Z" fill="white"/>
<path d="M87.6939 71.1942L81.6939 60.8018L73.0337 65.8018L79.0337 76.1942L87.6939 71.1942Z" fill="#75C725"/>
<path d="M42.6605 98.1943C42.485 98.1942 42.3125 98.148 42.1605 98.0602C42.0085 97.9725 41.8822 97.8463 41.7943 97.6943L35.7943 87.3018C35.6617 87.072 35.6258 86.799 35.6945 86.5428C35.7632 86.2866 35.9308 86.0682 36.1605 85.9355L44.8207 80.9355C45.0504 80.8031 45.3234 80.7673 45.5795 80.836C45.8357 80.9046 46.0541 81.0722 46.1869 81.3018L52.1869 91.6943C52.3194 91.9241 52.3553 92.1971 52.2867 92.4533C52.218 92.7095 52.0504 92.9279 51.8207 93.0605L43.1605 98.0605C43.0084 98.1482 42.836 98.1943 42.6605 98.1943ZM38.0267 87.168L43.0267 95.8281L49.9544 91.8281L44.9544 83.168L38.0267 87.168Z" fill="#111625"/>
<path d="M79.0001 77.3925C78.8246 77.3924 78.6521 77.3461 78.5001 77.2584C78.3481 77.1706 78.2218 77.0445 78.1339 76.8925L72.1339 66.4999C72.0013 66.2702 71.9654 65.9972 72.0341 65.741C72.1028 65.4848 72.2704 65.2664 72.5001 65.1337L81.1603 60.1337C81.39 60.0013 81.663 59.9655 81.9191 60.0341C82.1753 60.1028 82.3937 60.2703 82.5265 60.4999L88.5265 70.8925C88.659 71.1223 88.6949 71.3952 88.6263 71.6514C88.5576 71.9076 88.39 72.1261 88.1603 72.2587L79.5001 77.2587C79.348 77.3463 79.1756 77.3925 79.0001 77.3925ZM74.3663 66.3662L79.3663 75.0263L86.2941 71.0263L81.2941 62.3662L74.3663 66.3662Z" fill="#111625"/>
<path d="M31.0214 110.003C29.878 110.003 28.7398 109.852 27.6356 109.555C25.1521 108.89 22.9216 107.503 21.2263 105.569C19.5311 103.636 18.4471 101.244 18.1115 98.6946C17.7759 96.1455 18.2038 93.554 19.341 91.248C20.4782 88.9419 22.2737 87.0249 24.5004 85.7393L79.9261 53.7393C81.0747 53.0765 82.4394 52.897 83.7202 53.2403C85.0011 53.5835 86.0931 54.4215 86.7562 55.5698L94.7562 69.4263C95.4193 70.5747 95.5989 71.9394 95.2557 73.2203C94.9125 74.5012 94.0745 75.5933 92.9261 76.2563L37.5004 108.256C35.5321 109.399 33.2972 110.002 31.0214 110.003ZM82.4208 55.0684C81.8957 55.0687 81.3801 55.2079 80.9261 55.4717L25.5004 87.4717C24.2481 88.1933 23.1504 89.1546 22.2698 90.3007C21.3893 91.4468 20.7432 92.7552 20.3686 94.1511C19.994 95.547 19.8981 97.003 20.0864 98.4359C20.2748 99.8689 20.7437 101.251 21.4664 102.502C22.189 103.754 23.1513 104.851 24.2981 105.731C25.4449 106.61 26.7538 107.255 28.15 107.629C29.5462 108.002 31.0023 108.097 32.4351 107.907C33.8679 107.718 35.2493 107.248 36.5004 106.524L91.9261 74.5239C92.6145 74.1256 93.1167 73.4703 93.3224 72.7021C93.5282 71.9339 93.4208 71.1154 93.0238 70.4263L85.0238 56.5698C84.8277 56.228 84.5658 55.9284 84.2532 55.6884C83.9406 55.4485 83.5834 55.2729 83.2025 55.1719C82.9476 55.1033 82.6848 55.0685 82.4208 55.0684Z" fill="#111625"/>
<path d="M36.1965 93.9979C36.7899 95.0256 37.0651 96.2062 36.9875 97.3903C36.9099 98.5745 36.4829 99.709 35.7605 100.65C35.0381 101.592 34.0527 102.298 32.929 102.679C31.8053 103.061 30.5938 103.101 29.4475 102.793C28.3012 102.486 27.2718 101.846 26.4894 100.954C25.7069 100.062 25.2066 98.9577 25.0517 97.7811C24.8968 96.6046 25.0943 95.4085 25.6191 94.3442C26.144 93.2799 26.9726 92.3952 28.0003 91.8018C29.3784 91.0062 31.0162 90.7905 32.5532 91.2024C34.0903 91.6142 35.4008 92.6198 36.1965 93.9979Z" fill="white"/>
<path d="M31.0121 104.001C29.7826 104.003 28.5742 103.681 27.5085 103.068C26.4428 102.455 25.5574 101.572 24.9412 100.508C24.3251 99.4445 23.9999 98.237 23.9985 97.0076C23.9971 95.7781 24.3195 94.5699 24.9333 93.5046C25.547 92.4393 26.4305 91.5543 27.4948 90.9388C28.5591 90.3233 29.7667 89.9989 30.9962 89.9982C32.2256 89.9976 33.4336 90.3207 34.4986 90.935C35.5635 91.5494 36.448 92.4334 37.0628 93.4981C37.676 94.5617 37.9989 95.7677 37.9991 96.9954C37.9993 98.2231 37.6768 99.4293 37.0639 100.493C36.4511 101.557 35.5694 102.441 34.5072 103.057C33.4451 103.672 32.2397 103.998 31.0121 104.001ZM30.9916 91.999C29.8914 92.0011 28.8227 92.3661 27.9511 93.0373C27.0795 93.7085 26.4536 94.6485 26.1704 95.7116C25.8873 96.7747 25.9627 97.9014 26.385 98.9173C26.8073 99.9331 27.5529 100.781 28.5062 101.33C29.4595 101.879 30.5673 102.099 31.6579 101.954C32.7485 101.81 33.761 101.31 34.5384 100.531C35.3159 99.7528 35.8148 98.7397 35.958 97.649C36.1012 96.5582 35.8806 95.4507 35.3304 94.498C34.8904 93.7371 34.2577 93.1055 33.496 92.6668C32.7343 92.2281 31.8705 91.9978 30.9916 91.999Z" fill="#75859E"/>
<path d="M32.7324 95.9979C32.9302 96.3405 33.022 96.734 32.9961 97.1287C32.9702 97.5234 32.8279 97.9016 32.5871 98.2154C32.3463 98.5292 32.0178 98.7646 31.6433 98.8918C31.2687 99.0189 30.8649 99.0322 30.4828 98.9298C30.1007 98.8274 29.7575 98.614 29.4967 98.3167C29.2359 98.0193 29.0691 97.6512 29.0175 97.259C28.9658 96.8669 29.0317 96.4682 29.2066 96.1134C29.3815 95.7586 29.6578 95.4637 30.0003 95.2659C30.4597 95.0007 31.0056 94.9288 31.518 95.0661C32.0303 95.2034 32.4672 95.5386 32.7324 95.9979Z" fill="#75859E"/>
<path d="M31.0052 99.9976C30.2774 99.9985 29.5741 99.7347 29.0264 99.2553C28.4787 98.776 28.1239 98.1139 28.0283 97.3924C27.9327 96.6708 28.1027 95.9392 28.5067 95.3337C28.9106 94.7283 29.521 94.2904 30.2239 94.1017C30.9269 93.913 31.6744 93.9863 32.3273 94.3081C32.9802 94.6298 33.4938 95.178 33.7723 95.8504C34.0509 96.5228 34.0755 97.2735 33.8415 97.9627C33.6075 98.6519 33.1308 99.2325 32.5004 99.5962C32.0457 99.8584 31.5301 99.9968 31.0052 99.9976ZM30.9989 95.9976C30.7441 95.9972 30.4987 96.0938 30.3125 96.2678C30.1263 96.4417 30.0132 96.68 29.9961 96.9342C29.9791 97.1885 30.0594 97.4397 30.2208 97.6369C30.3822 97.8341 30.6125 97.9626 30.8651 97.9962C31.1177 98.0299 31.3736 97.9662 31.581 97.8181C31.7883 97.67 31.9316 97.4486 31.9817 97.1988C32.0319 96.9489 31.9851 96.6894 31.8509 96.4727C31.7167 96.2561 31.5052 96.0986 31.2592 96.0322C31.1743 96.0092 31.0868 95.9975 30.9989 95.9976Z" fill="#75859E"/>
<path d="M66.9095 84.1943C66.734 84.1942 66.5616 84.148 66.4095 84.0602C66.2575 83.9725 66.1312 83.8463 66.0433 83.6943L60.0433 73.3018C59.9108 73.072 59.8749 72.799 59.9435 72.5428C60.0122 72.2866 60.1798 72.0682 60.4095 71.9355L69.0697 66.9355C69.2995 66.8031 69.5724 66.7673 69.8286 66.836C70.0847 66.9046 70.3032 67.0722 70.4359 67.3018L76.4359 77.6943C76.5685 77.9241 76.6044 78.1971 76.5357 78.4533C76.467 78.7095 76.2994 78.9279 76.0697 79.0605L67.4095 84.0605C67.2575 84.1482 67.085 84.1943 66.9095 84.1943ZM62.2757 73.168L67.2757 81.8281L74.2035 77.8281L69.2035 69.168L62.2757 73.168Z" fill="#111625"/>
<path d="M54.785 91.1943C54.6095 91.1942 54.4371 91.148 54.285 91.0602C54.133 90.9725 54.0067 90.8463 53.9188 90.6943L47.9188 80.3018C47.7862 80.072 47.7503 79.799 47.819 79.5428C47.8877 79.2866 48.0553 79.0682 48.285 78.9356L56.9452 73.9356C57.175 73.8031 57.4479 73.7673 57.7041 73.836C57.9602 73.9046 58.1787 74.0722 58.3114 74.3018L64.3114 84.6943C64.444 84.9241 64.4798 85.1971 64.4112 85.4533C64.3425 85.7095 64.1749 85.9279 63.9452 86.0605L55.285 91.0606C55.133 91.1482 54.9605 91.1943 54.785 91.1943ZM50.1512 80.168L55.1512 88.8282L62.079 84.8282L57.079 76.168L50.1512 80.168Z" fill="#111625"/>
<path d="M73.3927 47.5724L41.3927 102.998C39.8014 105.754 37.1804 107.765 34.1063 108.589C31.0321 109.413 27.7566 108.982 25.0004 107.39C22.2442 105.799 20.2329 103.178 19.4092 100.104C18.5855 97.0297 19.0167 93.7542 20.608 90.998L52.6081 35.5724C52.8708 35.1175 53.2204 34.7187 53.6372 34.399C54.0539 34.0792 54.5296 33.8446 55.0369 33.7087C55.5443 33.5727 56.0735 33.538 56.5943 33.6066C57.1151 33.6752 57.6173 33.8456 58.0722 34.1083L71.9286 42.1083C72.8473 42.6388 73.5177 43.5124 73.7923 44.5371C74.0669 45.5618 73.9231 46.6537 73.3927 47.5724Z" fill="white"/>
<path d="M46.1967 82.6778L35.8044 76.6778L30.8044 85.3381L41.1968 91.3381L46.1967 82.6778Z" fill="white"/>
<path d="M60.1968 58.429L49.8044 52.429L44.8045 61.0893L55.1968 67.0893L60.1968 58.429Z" fill="#75C725" fill-opacity="0.6"/>
<path d="M53.1968 70.5534L42.8044 64.5534L37.8044 73.2137L48.1968 79.2137L53.1968 70.5534Z" fill="#75C725" fill-opacity="0.2"/>
<path d="M67.1969 46.3046L56.8045 40.3046L51.8045 48.9649L62.1968 54.9649L67.1969 46.3046Z" fill="#75C725"/>
<path d="M41.1957 92.3379C41.0205 92.3379 40.8484 92.2918 40.6967 92.2041L30.3041 86.2041C30.0745 86.0714 29.907 85.8529 29.8383 85.5968C29.7697 85.3406 29.8055 85.0677 29.9379 84.8379L34.9379 76.1777C35.0035 76.0639 35.0909 75.9641 35.195 75.884C35.2992 75.804 35.4182 75.7453 35.5451 75.7113C35.672 75.6773 35.8043 75.6686 35.9346 75.6858C36.0648 75.703 36.1904 75.7457 36.3041 75.8115L46.6967 81.8115C46.9263 81.9443 47.0938 82.1627 47.1625 82.4189C47.2312 82.675 47.1953 82.948 47.0629 83.1777L42.0629 91.8379C41.975 91.9901 41.8486 92.1164 41.6964 92.2042C41.5441 92.292 41.3714 92.3381 41.1957 92.3379ZM32.1703 84.9717L40.8305 89.9717L44.8305 83.044L36.1703 78.044L32.1703 84.9717Z" fill="#111625"/>
<path d="M62.1966 55.9648C62.0211 55.9648 61.8487 55.9187 61.6966 55.8311L51.3041 49.8311C51.0744 49.6984 50.9067 49.48 50.8381 49.2238C50.7694 48.9676 50.8053 48.6946 50.9379 48.4648L55.9379 39.8042C56.0706 39.5746 56.289 39.4071 56.5452 39.3384C56.8013 39.2697 57.0743 39.3056 57.3041 39.438L67.6966 45.438C67.9263 45.5706 68.094 45.7891 68.1626 46.0453C68.2313 46.3015 68.1954 46.5745 68.0629 46.8042L63.0629 55.4648C62.975 55.6168 62.8487 55.743 62.6966 55.8307C62.5446 55.9185 62.3722 55.9647 62.1966 55.9648ZM53.1703 48.5986L61.8305 53.5986L65.8305 46.6704L57.1703 41.6704L53.1703 48.5986Z" fill="#111625"/>
<path d="M30.9784 109.995C28.6984 109.992 26.4595 109.389 24.4862 108.246C22.513 107.104 20.8749 105.463 19.7364 103.488C18.5979 101.512 17.9991 99.2721 18 96.9922C18.0009 94.7122 18.6015 92.4725 19.7416 90.498L51.7421 35.0723C52.4051 33.9239 53.4972 33.0859 54.7781 32.7427C56.059 32.3995 57.4238 32.5792 58.5722 33.2422L72.4286 41.2422C73.5769 41.9053 74.4149 42.9973 74.7582 44.2782C75.1014 45.559 74.922 46.9237 74.2592 48.0723L42.2592 103.498C41.1151 105.476 39.4702 107.118 37.4899 108.259C35.5095 109.4 33.2637 109.998 30.9784 109.995ZM56.077 34.5732C55.5498 34.5724 55.0316 34.7105 54.5747 34.9736C54.1178 35.2368 53.7383 35.6157 53.4745 36.0722L21.474 91.498C20.0172 94.0245 19.6233 97.0261 20.3788 99.8429C21.1344 102.66 22.9777 105.061 25.5033 106.519C28.029 107.978 31.0304 108.373 33.8476 107.619C36.6648 106.865 39.0672 105.023 40.5268 102.498L72.5268 47.0723C72.7238 46.7311 72.8517 46.3545 72.9031 45.9639C72.9546 45.5734 72.9285 45.1765 72.8266 44.7959C72.7246 44.4154 72.5486 44.0587 72.3088 43.7462C72.0689 43.4337 71.7698 43.1715 71.4286 42.9746L57.5722 34.9746C57.1179 34.7113 56.6021 34.5729 56.077 34.5732Z" fill="#111625"/>
<path d="M34.0003 91.8018C35.028 92.3952 35.8567 93.2799 36.3815 94.3443C36.9064 95.4086 37.1038 96.6046 36.9489 97.7811C36.794 98.9577 36.2937 100.062 35.5113 100.954C34.7288 101.846 33.6994 102.486 32.5531 102.793C31.4069 103.101 30.1953 103.061 29.0716 102.679C27.9479 102.298 26.9625 101.592 26.2401 100.65C25.5177 99.709 25.0907 98.5745 25.0131 97.3903C24.9355 96.2062 25.2108 95.0256 25.8041 93.9979C26.1981 93.3155 26.7226 92.7174 27.3477 92.2378C27.9728 91.7581 28.6863 91.4063 29.4474 91.2024C30.2085 90.9984 31.0023 90.9464 31.7835 91.0493C32.5647 91.1521 33.3179 91.4078 34.0003 91.8018Z" fill="white"/>
<path d="M30.9886 104.001C29.2058 104.002 27.4894 103.325 26.1874 102.107C24.8855 100.889 24.0955 99.2212 23.9777 97.4422C23.8599 95.6633 24.423 93.9061 25.5529 92.5271C26.6829 91.1481 28.295 90.2504 30.0623 90.0161C31.8297 89.7818 33.62 90.2284 35.0702 91.2654C36.5204 92.3024 37.522 93.8522 37.8717 95.6004C38.2215 97.3485 37.8932 99.1643 36.9536 100.679C36.014 102.195 34.5333 103.296 32.8119 103.759C32.2173 103.919 31.6043 104.001 30.9886 104.001ZM31.0086 91.999C29.7959 91.9975 28.624 92.4371 27.7114 93.2358C26.7988 94.0345 26.2078 95.1377 26.0485 96.34C25.8892 97.5422 26.1724 98.7613 26.8455 99.7701C27.5186 100.779 28.5356 101.509 29.7068 101.823C30.8781 102.137 32.1237 102.015 33.2115 101.479C34.2994 100.943 35.1552 100.03 35.6194 98.9095C36.0836 97.7891 36.1246 96.5382 35.7347 95.3898C35.3449 94.2415 34.5507 93.2741 33.5003 92.668C32.7425 92.2309 31.8834 92.0003 31.0086 91.999Z" fill="#75859E"/>
<path d="M32.0003 95.2659C32.3429 95.4637 32.6191 95.7586 32.794 96.1134C32.969 96.4682 33.0348 96.8669 32.9831 97.259C32.9315 97.6512 32.7647 98.0193 32.5039 98.3166C32.2431 98.614 31.8999 98.8274 31.5178 98.9298C31.1358 99.0322 30.7319 99.0189 30.3573 98.8918C29.9828 98.7646 29.6543 98.5292 29.4135 98.2154C29.1727 97.9016 29.0304 97.5234 29.0045 97.1287C28.9787 96.734 29.0704 96.3405 29.2682 95.9979C29.3995 95.7704 29.5744 95.5711 29.7827 95.4112C29.9911 95.2513 30.2289 95.134 30.4826 95.066C30.7363 94.9981 31.001 94.9807 31.2614 95.015C31.5218 95.0493 31.7729 95.1346 32.0003 95.2659Z" fill="#75859E"/>
<path d="M30.9955 99.9976C30.3354 99.9964 29.6942 99.7775 29.1711 99.3748C28.6481 98.9721 28.2725 98.4082 28.1025 97.7703C27.9326 97.1325 27.9778 96.4564 28.2311 95.8469C28.4844 95.2374 28.9317 94.7284 29.5037 94.3989C30.0756 94.0694 30.7403 93.9378 31.3947 94.0244C32.0491 94.1111 32.6566 94.4112 33.1231 94.8781C33.5896 95.3451 33.889 95.953 33.975 96.6074C34.0609 97.2619 33.9286 97.9264 33.5985 98.4981C33.3361 98.9559 32.9569 99.336 32.4996 99.5994C32.0423 99.8629 31.5232 100 30.9955 99.9976ZM31.0018 95.9976C30.7816 95.9973 30.5674 96.0697 30.3925 96.2036C30.2176 96.3375 30.0918 96.5254 30.0346 96.7382C29.9775 96.9509 29.9921 97.1765 30.0764 97.3801C30.1606 97.5836 30.3096 97.7536 30.5004 97.8638C30.73 97.9962 31.0028 98.0321 31.2588 97.9634C31.5148 97.8948 31.7331 97.7273 31.8656 97.4978C31.9982 97.2683 32.0342 96.9955 31.9657 96.7394C31.8972 96.4834 31.7298 96.265 31.5004 96.1323C31.3491 96.0445 31.1768 95.9977 31.0018 95.9976Z" fill="#75859E"/>
<path d="M55.1957 68.0889C55.0205 68.0889 54.8484 68.0427 54.6967 67.9551L44.3041 61.9551C44.0745 61.8223 43.907 61.6039 43.8383 61.3477C43.7697 61.0916 43.8055 60.8186 43.9379 60.5889L48.9379 51.9287C49.0035 51.8149 49.0908 51.715 49.195 51.635C49.2992 51.555 49.4182 51.4962 49.5451 51.4622C49.672 51.4282 49.8043 51.4196 49.9346 51.4368C50.0648 51.454 50.1904 51.4967 50.3041 51.5625L60.6967 57.5625C60.9263 57.6952 61.0938 57.9137 61.1625 58.1698C61.2312 58.426 61.1954 58.6989 61.0629 58.9287L56.0629 67.5889C55.975 67.7411 55.8486 67.8674 55.6964 67.9552C55.5441 68.043 55.3714 68.0891 55.1957 68.0889ZM46.1703 60.7227L54.8305 65.7227L58.8305 58.7949L50.1703 53.7949L46.1703 60.7227Z" fill="#111625"/>
<path d="M48.1957 80.2134C48.0205 80.2134 47.8484 80.1673 47.6967 80.0796L37.3041 74.0796C37.0745 73.9469 36.907 73.7284 36.8383 73.4723C36.7697 73.2161 36.8055 72.9432 36.9379 72.7134L41.9379 64.0532C42.0706 63.8235 42.289 63.6559 42.5452 63.5873C42.8014 63.5186 43.0744 63.5545 43.3041 63.687L53.6967 69.687C53.9263 69.8197 54.0938 70.0382 54.1625 70.2943C54.2312 70.5505 54.1953 70.8234 54.0629 71.0532L49.0629 79.7134C48.975 79.8656 48.8486 79.9919 48.6964 80.0797C48.5441 80.1675 48.3714 80.2136 48.1957 80.2134ZM39.1703 72.8472L47.8305 77.8472L51.8305 70.9194L43.1703 65.9194L39.1703 72.8472Z" fill="#111625"/>
<path d="M43.0233 33V97C43.0233 100.183 41.759 103.235 39.5086 105.485C37.2582 107.736 34.2059 109 31.0233 109C27.8407 109 24.7885 107.736 22.538 105.485C20.2876 103.235 19.0233 100.183 19.0233 97V33C19.0233 31.9391 19.4447 30.9217 20.1949 30.1716C20.945 29.4214 21.9624 29 23.0233 29H39.0233C40.0842 29 41.1016 29.4214 41.8517 30.1716C42.6019 30.9217 43.0233 31.9391 43.0233 33Z" fill="white"/>
<path d="M37.0233 77H25.0233V87H37.0233V77Z" fill="white"/>
<path d="M37.0233 63H25.0233V73H37.0233V63Z" fill="#75C725" fill-opacity="0.2"/>
<path d="M37.0233 49H25.0233V59H37.0233V49Z" fill="#75C725" fill-opacity="0.6"/>
<path d="M37.0233 35H25.0233V45H37.0233V35Z" fill="#75C725"/>
<path d="M37.0233 88H25.0233C24.7581 88 24.5037 87.8946 24.3162 87.7071C24.1287 87.5196 24.0233 87.2652 24.0233 87V77C24.0233 76.7348 24.1287 76.4804 24.3162 76.2929C24.5037 76.1054 24.7581 76 25.0233 76H37.0233C37.2885 76 37.5429 76.1054 37.7304 76.2929C37.918 76.4804 38.0233 76.7348 38.0233 77V87C38.0233 87.2652 37.918 87.5196 37.7304 87.7071C37.5429 87.8946 37.2885 88 37.0233 88ZM26.0233 86H36.0233V78H26.0233V86Z" fill="#111625"/>
<path d="M37.0233 74H25.0233C24.7581 74 24.5037 73.8946 24.3162 73.7071C24.1287 73.5196 24.0233 73.2652 24.0233 73V63C24.0233 62.7348 24.1287 62.4804 24.3162 62.2929C24.5037 62.1054 24.7581 62 25.0233 62H37.0233C37.2885 62 37.5429 62.1054 37.7304 62.2929C37.918 62.4804 38.0233 62.7348 38.0233 63V73C38.0233 73.2652 37.918 73.5196 37.7304 73.7071C37.5429 73.8946 37.2885 74 37.0233 74ZM26.0233 72H36.0233V64H26.0233V72Z" fill="#111625"/>
<path d="M37.0233 60H25.0233C24.7581 60 24.5037 59.8946 24.3162 59.7071C24.1287 59.5196 24.0233 59.2652 24.0233 59V49C24.0233 48.7348 24.1287 48.4804 24.3162 48.2929C24.5037 48.1054 24.7581 48 25.0233 48H37.0233C37.2885 48 37.5429 48.1054 37.7304 48.2929C37.918 48.4804 38.0233 48.7348 38.0233 49V59C38.0233 59.2652 37.918 59.5196 37.7304 59.7071C37.5429 59.8946 37.2885 60 37.0233 60ZM26.0233 58H36.0233V50H26.0233V58Z" fill="#111625"/>
<path d="M37.0233 46H25.0233C24.7581 46 24.5037 45.8946 24.3162 45.7071C24.1287 45.5196 24.0233 45.2652 24.0233 45V35C24.0233 34.7348 24.1287 34.4804 24.3162 34.2929C24.5037 34.1054 24.7581 34 25.0233 34H37.0233C37.2885 34 37.5429 34.1054 37.7304 34.2929C37.918 34.4804 38.0233 34.7348 38.0233 35V45C38.0233 45.2652 37.918 45.5196 37.7304 45.7071C37.5429 45.8946 37.2885 46 37.0233 46ZM26.0233 44H36.0233V36H26.0233V44Z" fill="#111625"/>
<path d="M31.0233 110C27.5767 109.996 24.2723 108.625 21.8351 106.188C19.398 103.751 18.0271 100.447 18.0233 97V33C18.0249 31.6744 18.5522 30.4035 19.4895 29.4662C20.4268 28.5288 21.6977 28.0016 23.0233 28H39.0233C40.3489 28.0016 41.6198 28.5288 42.5571 29.4662C43.4945 30.4035 44.0218 31.6744 44.0233 33V97C44.0195 100.447 42.6486 103.751 40.2115 106.188C37.7743 108.625 34.47 109.996 31.0233 110ZM23.0233 30C22.2279 30.0009 21.4654 30.3172 20.903 30.8796C20.3405 31.4421 20.0242 32.2046 20.0233 33V97C20.0233 99.9174 21.1822 102.715 23.2451 104.778C25.308 106.841 28.1059 108 31.0233 108C33.9407 108 36.7386 106.841 38.8015 104.778C40.8644 102.715 42.0233 99.9174 42.0233 97V33C42.0224 32.2046 41.7061 31.4421 41.1437 30.8796C40.5813 30.3172 39.8187 30.0009 39.0233 30H23.0233Z" fill="#111625"/>
<path d="M31.0232 103C34.3369 103 37.0232 100.314 37.0232 97C37.0232 93.6863 34.3369 91 31.0232 91C27.7095 91 25.0232 93.6863 25.0232 97C25.0232 100.314 27.7095 103 31.0232 103Z" fill="white"/>
<path d="M31.0233 104C29.6388 104 28.2855 103.589 27.1343 102.82C25.9832 102.051 25.086 100.958 24.5562 99.6788C24.0263 98.3997 23.8877 96.9922 24.1578 95.6344C24.4279 94.2765 25.0946 93.0292 26.0736 92.0503C27.0525 91.0713 28.2998 90.4046 29.6577 90.1345C31.0156 89.8644 32.423 90.003 33.7021 90.5328C34.9812 91.0627 36.0744 91.9599 36.8436 93.111C37.6128 94.2622 38.0233 95.6155 38.0233 97C38.0212 98.8559 37.2831 100.635 35.9708 101.947C34.6585 103.26 32.8792 103.998 31.0233 104ZM31.0233 92C30.0344 92 29.0677 92.2932 28.2455 92.8427C27.4232 93.3921 26.7824 94.173 26.4039 95.0866C26.0255 96.0002 25.9265 97.0055 26.1194 97.9754C26.3123 98.9454 26.7885 99.8363 27.4878 100.536C28.187 101.235 29.078 101.711 30.0479 101.904C31.0178 102.097 32.0231 101.998 32.9367 101.619C33.8504 101.241 34.6313 100.6 35.1807 99.7779C35.7301 98.9556 36.0233 97.9889 36.0233 97C36.0218 95.6744 35.4945 94.4035 34.5571 93.4662C33.6198 92.5288 32.3489 92.0016 31.0233 92Z" fill="#111625"/>
<path d="M31.0233 100C30.43 100 29.85 99.824 29.3566 99.4944C28.8633 99.1648 28.4787 98.6962 28.2517 98.148C28.0246 97.5999 27.9652 96.9967 28.081 96.4147C28.1967 95.8328 28.4824 95.2982 28.902 94.8787C29.3216 94.4591 29.8561 94.1734 30.438 94.0576C31.02 93.9419 31.6232 94.0013 32.1714 94.2284C32.7195 94.4554 33.1881 94.8399 33.5177 95.3333C33.8474 95.8266 34.0233 96.4067 34.0233 97C34.0224 97.7954 33.7061 98.5579 33.1437 99.1204C32.5813 99.6828 31.8187 99.9991 31.0233 100ZM31.0233 96C30.8255 96 30.6322 96.0587 30.4677 96.1685C30.3033 96.2784 30.1751 96.4346 30.0994 96.6173C30.0238 96.8 30.0039 97.0011 30.0425 97.1951C30.0811 97.3891 30.1764 97.5673 30.3162 97.7071C30.4561 97.847 30.6342 97.9422 30.8282 97.9808C31.0222 98.0194 31.2233 97.9996 31.406 97.9239C31.5887 97.8482 31.7449 97.72 31.8548 97.5556C31.9647 97.3911 32.0233 97.1978 32.0233 97C32.023 96.7349 31.9175 96.4807 31.73 96.2933C31.5426 96.1058 31.2884 96.0003 31.0233 96Z" fill="#111625"/>
<path d="M0 157.172V126C0 124.895 0.89543 124 2 124H33.1716C34.9534 124 35.8457 126.154 34.5858 127.414L3.41421 158.586C2.15428 159.846 0 158.953 0 157.172Z" fill="white"/>
</g>
<defs>
<clipPath id="clip0_132_15">
<rect width="200" height="160" fill="white"/>
</clipPath>
</defs>
</svg>
