<svg width="64" height="64" viewBox="0 0 64 64" fill="none" xmlns="http://www.w3.org/2000/svg">
<path d="M31.9997 54.7367C27.3966 54.7367 22.982 52.9081 19.727 49.6532C16.4721 46.3982 14.6435 41.9836 14.6435 37.3804C14.6779 32.6953 16.2992 28.1602 19.2429 24.5151C22.6744 20.0725 24.611 14.6575 24.7752 9.04636C24.7953 8.69277 24.9017 8.34948 25.085 8.04646C25.2683 7.74344 25.5231 7.48992 25.827 7.30802C26.1308 7.12612 26.4746 7.02138 26.8283 7.00294C27.182 6.98451 27.5348 7.05293 27.8559 7.20225C31.4961 8.76908 34.6509 11.2811 36.9931 14.4779C39.3354 17.6747 40.7799 21.4398 41.1769 25.3829C41.678 24.7063 42.107 23.9792 42.4569 23.2134C42.5909 22.8429 42.8232 22.5159 43.129 22.2674C43.4348 22.019 43.8024 21.8585 44.1925 21.8032C44.5845 21.7494 44.9837 21.8039 45.347 21.9607C45.7103 22.1175 46.0238 22.3706 46.2536 22.6927C46.579 23.0832 49.356 27.2487 49.356 37.3804C49.3822 39.667 48.9511 41.9356 48.0881 44.0532C47.2252 46.1708 45.9477 48.0946 44.3308 49.7115C42.7139 51.3284 40.7901 52.6059 38.6725 53.4688C36.555 54.3318 34.2863 54.7629 31.9997 54.7367ZM28.7671 12.6478C28.0432 17.8469 26.0046 22.7753 22.8443 26.9667C20.3788 29.8795 19.0123 33.5644 18.9826 37.3804C18.9826 40.8328 20.354 44.1438 22.7952 46.585C25.2364 49.0262 28.5474 50.3976 31.9997 50.3976C33.7197 50.4362 35.4297 50.1258 37.0264 49.4853C38.6232 48.8447 40.0736 47.8873 41.2901 46.6708C42.5066 45.4543 43.464 44.0039 44.1046 42.4071C44.7451 40.8104 45.0555 39.1004 45.0169 37.3804C45.062 34.4592 44.7413 31.5439 44.0623 28.7023C42.9224 30.1389 41.5601 31.384 40.027 32.3905C39.6745 32.6184 39.2635 32.7391 38.8437 32.7381C38.424 32.7371 38.0135 32.6143 37.6622 32.3846C37.3108 32.155 37.0336 31.8283 36.8642 31.4443C36.6948 31.0603 36.6404 30.6353 36.7076 30.221C37.3435 26.8312 36.9229 23.3278 35.5027 20.1849C34.0825 17.0419 31.7314 14.4109 28.7671 12.6478Z" fill="url(#paint0_linear_185_46)"/>
<defs>
<linearGradient id="paint0_linear_185_46" x1="23.0004" y1="12.6609" x2="47.2374" y2="21.4602" gradientUnits="userSpaceOnUse">
<stop stop-color="#FF9E67"/>
<stop offset="0.525" stop-color="#A566AF"/>
<stop offset="1" stop-color="#F636B5"/>
</linearGradient>
</defs>
</svg>
