<svg width="282" height="120" viewBox="0 0 282 120" fill="none" xmlns="http://www.w3.org/2000/svg">
<g clip-path="url(#clip0_1_2)">
<rect opacity="0.3" x="0.5" y="0.5" width="119" height="119" rx="19.5" stroke="#333333"/>
<path fill-rule="evenodd" clip-rule="evenodd" d="M29.6326 46.828C25.1968 51.6629 24.997 59.7682 29.5663 66.4411C32.5258 70.763 35.0332 73.0514 37.2656 74.0928C39.3791 75.0787 41.4798 75.0539 43.9918 74.1512C46.6042 73.2124 49.5179 71.3733 53.0953 68.8488C54.2427 68.039 55.4591 67.1583 56.7435 66.2283C59.369 64.3272 62.2787 62.2205 65.4648 60.0936C66.1139 59.6603 66.7566 59.2537 67.3927 58.8732C67.4277 58.8509 67.4634 58.8296 67.4998 58.8093C70.9064 56.7845 74.1218 55.5055 77.1033 54.8535C75.8544 54.2389 74.6043 53.6203 73.3675 53.0083C72.7855 52.7203 72.2064 52.4338 71.6317 52.1498C66.7903 49.7572 62.2862 47.5569 58.8945 46.1323C43.3051 39.584 33.9816 42.0876 29.6326 46.828ZM87.8027 55.3502C83.8829 53.5475 79.5268 51.392 75.2607 49.2812C74.6788 48.9933 74.0985 48.7062 73.5212 48.4209C68.7078 46.0421 64.0817 43.7799 60.547 42.2952C44.2331 35.4425 32.6219 37.3594 26.5036 44.0283C20.472 50.6027 20.6718 60.8954 26.0687 68.7769C29.1961 73.344 32.2245 76.3528 35.4623 77.8631C38.8191 79.429 42.123 79.26 45.4355 78.0696C48.6475 76.9154 51.978 74.7622 55.55 72.2414C56.7758 71.3764 58.0316 70.4669 59.3366 69.5217C61.924 67.6479 64.7049 65.6338 67.8293 63.5482C68.2979 63.2353 68.7603 62.9393 69.2165 62.6594C71.9746 62.4732 74.7675 63.288 77.5406 64.678C80.4691 66.1459 83.2088 68.1683 85.6875 70.0641C85.9298 70.2495 86.1709 70.4346 86.4101 70.6183C87.3689 71.3544 88.2964 72.0665 89.1426 72.6709C90.1806 73.4123 91.2533 74.1083 92.2642 74.5168C93.2107 74.8993 94.7303 75.2773 96.1053 74.3516C97.3785 73.4944 97.7743 71.9954 97.9193 70.7391C98.5446 65.3189 95.5121 59.1756 89.6885 56.1741C89.0846 55.8628 88.4557 55.5873 87.8027 55.3502ZM75.9352 59.4845C77.1545 59.8915 78.3297 60.3975 79.4515 60.9598C82.7737 62.625 85.7928 64.8706 88.2728 66.7675C88.5332 66.9667 88.7864 67.161 89.0329 67.3502C89.9844 68.0807 90.8359 68.7344 91.6169 69.2922C92.5059 69.9271 93.1801 70.3462 93.6798 70.5778C93.6953 70.489 93.7105 70.386 93.7242 70.2671C94.1482 66.5916 92.0385 62.0888 87.735 59.8707C84.9295 58.4247 80.9722 57.863 75.9352 59.4845ZM94.1927 70.7601C94.1931 70.7607 94.1851 70.7604 94.1675 70.7571C94.1834 70.7578 94.1922 70.7594 94.1927 70.7601Z" fill="black"/>
<path d="M184.101 53.9418H177.195C176.998 52.8092 176.634 51.8059 176.105 50.9318C175.576 50.0455 174.917 49.2945 174.129 48.679C173.341 48.0634 172.443 47.6018 171.433 47.294C170.436 46.974 169.359 46.8139 168.202 46.8139C166.146 46.8139 164.324 47.331 162.736 48.3651C161.148 49.3868 159.904 50.8887 159.006 52.8707C158.107 54.8404 157.658 57.2472 157.658 60.0909C157.658 62.9839 158.107 65.4214 159.006 67.4034C159.917 69.3731 161.16 70.8627 162.736 71.8722C164.324 72.8693 166.14 73.3679 168.183 73.3679C169.316 73.3679 170.375 73.2202 171.359 72.9247C172.357 72.617 173.249 72.1676 174.037 71.5767C174.837 70.9858 175.508 70.2595 176.05 69.3977C176.604 68.536 176.985 67.5511 177.195 66.4432L184.101 66.4801C183.842 68.2775 183.282 69.964 182.42 71.5398C181.571 73.1155 180.457 74.5066 179.078 75.7131C177.699 76.9072 176.087 77.8428 174.24 78.5199C172.393 79.1847 170.344 79.517 168.091 79.517C164.767 79.517 161.8 78.7476 159.19 77.2088C156.58 75.67 154.525 73.4479 153.023 70.5426C151.521 67.6373 150.77 64.1534 150.77 60.0909C150.77 56.0161 151.527 52.5322 153.041 49.6392C154.555 46.7339 156.617 44.5118 159.227 42.973C161.837 41.4342 164.792 40.6648 168.091 40.6648C170.196 40.6648 172.153 40.9602 173.963 41.5511C175.773 42.142 177.385 43.0099 178.801 44.1548C180.217 45.2874 181.38 46.6785 182.291 48.3281C183.214 49.9654 183.818 51.8366 184.101 53.9418ZM190.079 79V50.6364H196.561V55.3636H196.856C197.373 53.7263 198.26 52.4645 199.515 51.5781C200.783 50.6795 202.23 50.2301 203.855 50.2301C204.224 50.2301 204.636 50.2486 205.092 50.2855C205.56 50.3101 205.948 50.3532 206.255 50.4148V56.5639C205.972 56.4654 205.523 56.3793 204.907 56.3054C204.304 56.2192 203.719 56.1761 203.153 56.1761C201.934 56.1761 200.839 56.4408 199.866 56.9702C198.906 57.4872 198.149 58.2074 197.595 59.1307C197.041 60.054 196.764 61.1188 196.764 62.3253V79H190.079ZM210.696 79V50.6364H217.381V79H210.696ZM214.057 46.6108C212.998 46.6108 212.087 46.2599 211.324 45.5582C210.561 44.8442 210.179 43.9886 210.179 42.9915C210.179 41.982 210.561 41.1264 211.324 40.4247C212.087 39.7107 212.998 39.3537 214.057 39.3537C215.128 39.3537 216.039 39.7107 216.79 40.4247C217.553 41.1264 217.935 41.982 217.935 42.9915C217.935 43.9886 217.553 44.8442 216.79 45.5582C216.039 46.2599 215.128 46.6108 214.057 46.6108ZM246.673 58.1335L240.579 58.7983C240.406 58.1828 240.105 57.6042 239.674 57.0625C239.255 56.5208 238.689 56.0838 237.975 55.7514C237.261 55.419 236.387 55.2528 235.353 55.2528C233.962 55.2528 232.792 55.5544 231.844 56.1577C230.909 56.7609 230.447 57.5426 230.46 58.5028C230.447 59.3277 230.749 59.9986 231.364 60.5156C231.992 61.0327 233.026 61.4574 234.467 61.7898L239.305 62.8239C241.988 63.4025 243.983 64.3196 245.288 65.5753C246.605 66.831 247.27 68.4744 247.282 70.5057C247.27 72.2907 246.746 73.8665 245.712 75.233C244.691 76.5871 243.269 77.6458 241.447 78.4091C239.625 79.1723 237.532 79.554 235.168 79.554C231.697 79.554 228.902 78.8277 226.785 77.375C224.667 75.91 223.406 73.8726 222.999 71.2628L229.518 70.6349C229.813 71.9152 230.441 72.8816 231.401 73.5341C232.362 74.1866 233.611 74.5128 235.15 74.5128C236.738 74.5128 238.012 74.1866 238.972 73.5341C239.945 72.8816 240.431 72.0753 240.431 71.1151C240.431 70.3026 240.117 69.6316 239.489 69.1023C238.874 68.5729 237.914 68.1667 236.609 67.8835L231.771 66.8679C229.05 66.3016 227.037 65.3475 225.732 64.0057C224.427 62.6515 223.781 60.9403 223.793 58.8722C223.781 57.1241 224.255 55.6098 225.215 54.3295C226.188 53.0369 227.536 52.0398 229.259 51.3381C230.995 50.6241 232.996 50.267 235.261 50.267C238.585 50.267 241.201 50.9749 243.109 52.3906C245.029 53.8063 246.217 55.7206 246.673 58.1335ZM252.794 89.6364V50.6364H259.368V55.3267H259.756C260.1 54.6373 260.587 53.9048 261.214 53.1293C261.842 52.3414 262.692 51.6705 263.763 51.1165C264.834 50.5502 266.2 50.267 267.862 50.267C270.054 50.267 272.029 50.8272 273.79 51.9474C275.563 53.0554 276.966 54.6989 278 56.8778C279.046 59.0445 279.57 61.7036 279.57 64.8551C279.57 67.9697 279.059 70.6165 278.037 72.7955C277.015 74.9744 275.624 76.6364 273.864 77.7812C272.103 78.9261 270.109 79.4986 267.881 79.4986C266.256 79.4986 264.908 79.2277 263.837 78.6861C262.766 78.1444 261.904 77.492 261.251 76.7287C260.611 75.9531 260.113 75.2206 259.756 74.5312H259.479V89.6364H252.794ZM259.349 64.8182C259.349 66.6525 259.608 68.259 260.125 69.6378C260.654 71.0166 261.411 72.0937 262.396 72.8693C263.393 73.6326 264.6 74.0142 266.016 74.0142C267.493 74.0142 268.73 73.6203 269.727 72.8324C270.724 72.0322 271.475 70.9427 271.98 69.5639C272.497 68.1728 272.756 66.5909 272.756 64.8182C272.756 63.0578 272.503 61.4943 271.999 60.1278C271.494 58.7614 270.743 57.6903 269.746 56.9148C268.749 56.1392 267.505 55.7514 266.016 55.7514C264.588 55.7514 263.375 56.1269 262.378 56.8778C261.381 57.6288 260.624 58.6813 260.107 60.0355C259.602 61.3897 259.349 62.9839 259.349 64.8182Z" fill="black"/>
</g>
<defs>
<clipPath id="clip0_1_2">
<rect width="282" height="120" fill="white"/>
</clipPath>
</defs>
</svg>
