<svg width="120" height="120" viewBox="0 0 120 120" fill="none" xmlns="http://www.w3.org/2000/svg">
<g clip-path="url(#clip0_1_2)">
<path d="M90.9869 16.8917C105.78 28.2136 115.664 58.4969 110.251 106.786C109.941 109.621 109.569 112.501 109.143 115.45L109.128 115.442C108.27 113.612 107.302 111.919 106.232 110.387C94.5894 93.397 72.0476 93.7109 58.9422 94.7631C48.241 95.6559 36.9328 90.6761 37.9377 80.3759C38.1778 77.969 39.1816 75.0069 40.4631 72.9401C40.4631 72.9401 27.0233 71.4456 22.4478 63.502C18.673 56.8761 23.9716 48.7168 23.9716 48.7168C10.7586 43.6305 -1.38226 33.3962 2.84853 21.0595C8.00795 6.08901 28.9182 9.32345 39.4691 13.8189C44.749 3.27471 61.2559 7.44066 67.1194 18.1103C72.1189 9.43088 81.1921 9.36516 90.9869 16.8917Z" fill="#96C64B"/>
<path d="M61.3561 40.2371C68.6361 45.1062 76.3213 51.323 83.4504 58.6853C83.8967 54.7781 84.1548 48.9578 82.7905 43.2922C82.4969 42.0595 83.2533 40.7849 84.4838 40.4682C85.7143 40.1515 86.9605 40.9057 87.2541 42.1384C89.352 50.9048 88.0515 59.6891 87.412 63.0143C98.1725 75.232 107.098 90.1433 110.406 106.854C110.096 109.691 109.725 112.573 109.298 115.525L109.283 115.517C108.424 113.685 107.456 111.991 106.386 110.458C103.79 93.841 95.259 78.9771 84.7329 66.8214C76.8379 72.1314 65.6795 74.9968 65.1751 75.125C63.9446 75.4417 62.7134 74.6951 62.4199 73.4625C62.1263 72.2298 62.8976 70.9629 64.1202 70.6614C64.235 70.6236 74.4385 67.9842 81.6271 63.3753C74.57 55.8374 66.865 49.4751 59.5257 44.5369C54.1439 49.9939 45.6808 52.6552 45.2984 52.7685C44.0742 53.1464 42.8114 52.4609 42.4568 51.2357C42.1094 50.0335 42.8055 48.728 44.0218 48.3653C44.0986 48.3274 51.0239 46.1347 55.5726 41.9903C49.6884 38.3579 44.1786 35.7291 39.664 34.2283C38.4708 33.8491 37.8368 32.5387 38.2423 31.3163C38.655 30.1168 39.9687 29.4562 41.1619 29.8355C45.6163 31.3054 51.0058 33.8726 56.7942 37.3593C56.7074 34.5899 56.2724 31.0236 54.785 28.3484C54.162 27.237 54.5636 25.8386 55.6794 25.1926C56.7721 24.5541 58.1783 24.9264 58.7863 26.0302C61.4318 30.7674 61.5117 37.184 61.3561 40.2371Z" fill="#4A993A"/>
</g>
<defs>
<clipPath id="clip0_1_2">
<rect width="120" height="120" fill="white"/>
</clipPath>
</defs>
</svg>
