<svg width="64" height="64" viewBox="0 0 64 64" fill="none" xmlns="http://www.w3.org/2000/svg">
<path d="M31.9998 53.8704C27.7566 53.8704 23.6871 52.1848 20.6867 49.1844C17.6863 46.184 16.0007 42.1145 16.0007 37.8713C16.0324 33.5525 17.5269 29.372 20.2404 26.0119C23.4036 21.9167 25.1888 16.9251 25.3402 11.7527C25.3587 11.4267 25.4568 11.1103 25.6258 10.831C25.7948 10.5517 26.0296 10.318 26.3097 10.1503C26.5898 9.9826 26.9067 9.88605 27.2327 9.86905C27.5588 9.85206 27.884 9.91514 28.18 10.0528C31.5355 11.4971 34.4436 13.8127 36.6028 16.7595C38.7619 19.7064 40.0934 23.1771 40.4594 26.8119C40.9213 26.1882 41.3167 25.5179 41.6393 24.812C41.7628 24.4705 41.977 24.169 42.2589 23.94C42.5407 23.711 42.8796 23.563 43.2392 23.5121C43.6006 23.4625 43.9686 23.5127 44.3035 23.6572C44.6383 23.8017 44.9273 24.0351 45.1391 24.332C45.4391 24.692 47.999 28.5318 47.999 37.8713C48.0231 39.979 47.6257 42.0703 46.8302 44.0223C46.0347 45.9743 44.8572 47.7477 43.3667 49.2381C41.8762 50.7286 40.1028 51.9062 38.1508 52.7017C36.1988 53.4972 34.1075 53.8946 31.9998 53.8704ZM29.02 15.0725C28.3526 19.8651 26.4735 24.4082 23.5603 28.2718C21.2875 30.9568 20.0278 34.3536 20.0005 37.8713C20.0005 41.0537 21.2647 44.1058 23.515 46.3561C25.7653 48.6064 28.8174 49.8706 31.9998 49.8706C33.5853 49.9062 35.1616 49.6201 36.6335 49.0296C38.1053 48.4392 39.4423 47.5566 40.5637 46.4352C41.6851 45.3138 42.5677 43.9768 43.1581 42.5049C43.7486 41.0331 44.0347 39.4568 43.9992 37.8713C44.0407 35.1785 43.7451 32.4911 43.1192 29.8717C42.0684 31.196 40.8126 32.3438 39.3994 33.2715C39.0745 33.4816 38.6956 33.5929 38.3087 33.5919C37.9217 33.591 37.5434 33.4778 37.2195 33.2661C36.8956 33.0544 36.6401 32.7533 36.4839 32.3993C36.3277 32.0453 36.2776 31.6536 36.3396 31.2716C36.9257 28.1469 36.538 24.9175 35.2289 22.0203C33.9198 19.123 31.7524 16.6978 29.02 15.0725Z" fill="url(#paint0_linear_185_46)"/>
<defs>
<linearGradient id="paint0_linear_185_46" x1="23.7041" y1="15.0846" x2="46.046" y2="23.1959" gradientUnits="userSpaceOnUse">
<stop stop-color="#FF9E67"/>
<stop offset="0.525" stop-color="#A566AF"/>
<stop offset="1" stop-color="#F636B5"/>
</linearGradient>
</defs>
</svg>
