<svg width="120" height="120" viewBox="0 0 120 120" fill="none" xmlns="http://www.w3.org/2000/svg">
<path fill-rule="evenodd" clip-rule="evenodd" d="M14.4488 42.919C7.79523 49.9944 7.49552 61.856 14.3495 71.6211C18.7886 77.9459 22.5497 81.2947 25.8984 82.8187C29.0686 84.2615 32.2197 84.2252 35.9877 82.9041C39.9064 81.5303 44.2769 78.839 49.6429 75.1446C51.3641 73.9595 53.1887 72.6706 55.1152 71.3097C59.0535 68.5277 63.4182 65.4445 68.1974 62.332C69.1711 61.6979 70.1348 61.103 71.0891 60.5461C71.1414 60.5135 71.1949 60.4824 71.2496 60.4527C76.3596 57.4895 81.1828 55.6178 85.6547 54.6636C83.7819 53.7642 81.9062 52.859 80.0511 51.9634C79.1784 51.542 78.3093 51.1227 77.4479 50.7071C70.1854 47.2057 63.4294 43.9858 58.3417 41.9009C34.9577 32.3181 20.9725 35.9818 14.4488 42.919ZM101.704 55.3906C95.8242 52.7524 89.2904 49.5981 82.8911 46.5091C82.0185 46.0878 81.1476 45.6675 80.282 45.2501C73.0618 41.7689 66.1225 38.4584 60.8203 36.2856C36.3497 26.2574 18.9328 29.0626 9.75544 38.8219C0.707946 48.4429 1.00768 63.5054 9.10311 75.0395C13.7941 81.7229 18.3368 86.126 23.1935 88.3364C28.2286 90.6277 33.1845 90.3804 38.1532 88.6387C42.9712 86.9491 47.967 83.7983 53.3251 80.1094C55.1638 78.8435 57.0475 77.5125 59.005 76.1294C62.8858 73.3871 67.0574 70.4398 71.7438 67.3875C72.4472 66.9298 73.1406 66.4965 73.8246 66.0869C77.962 65.8144 82.1513 67.0069 86.3111 69.041C90.7036 71.1892 94.8135 74.1487 98.5314 76.9231C98.8946 77.1944 99.2565 77.4653 99.615 77.7341C101.054 78.8113 102.444 79.8534 103.714 80.7379C105.271 81.8228 106.88 82.8414 108.397 83.4392C109.816 83.9989 112.096 84.5522 114.158 83.1975C116.067 81.9431 116.662 79.7493 116.879 77.9109C117.817 69.9789 113.268 60.9887 104.533 56.5962C103.627 56.1407 102.684 55.7375 101.704 55.3906ZM83.903 61.4407C85.7317 62.0364 87.4946 62.7768 89.1775 63.5997C94.1606 66.0366 98.6895 69.3228 102.409 72.0988C102.8 72.3902 103.18 72.6747 103.549 72.9515C104.977 74.0205 106.254 74.9771 107.425 75.7934C108.759 76.7227 109.77 77.3359 110.52 77.6749C110.543 77.5449 110.565 77.3942 110.586 77.2201C111.222 71.8413 108.058 65.2519 101.602 62.0059C97.3943 59.8898 91.4581 59.0678 83.903 61.4407ZM111.289 77.9416C111.289 77.9416 111.278 77.942 111.251 77.9372C111.275 77.9382 111.289 77.9416 111.289 77.9416Z" fill="url(#paint0_linear_168_27)"/>
<defs>
<linearGradient id="paint0_linear_168_27" x1="30.4442" y1="37.115" x2="77.8613" y2="82.0952" gradientUnits="userSpaceOnUse">
<stop stop-color="#FF9E67"/>
<stop offset="0.525" stop-color="#A566AF"/>
<stop offset="1" stop-color="#F636B5"/>
</linearGradient>
</defs>
</svg>
