<svg width="201" height="114" viewBox="0 0 201 114" fill="none" xmlns="http://www.w3.org/2000/svg">
<path fill-rule="evenodd" clip-rule="evenodd" d="M21.4831 24.8236C10.1603 37.3235 9.65027 58.2789 21.314 75.5306C28.8684 86.7044 35.2688 92.6207 40.9675 95.3131C46.3624 97.8619 51.7248 97.7978 58.1369 95.464C64.8056 93.0369 72.2431 88.2822 81.3747 81.7554C84.3038 79.6618 87.4088 77.3848 90.6873 74.9805C97.3893 70.0656 104.817 64.6187 112.95 59.1199C114.607 57.9997 116.247 56.9487 117.871 55.9648C117.96 55.9072 118.051 55.8522 118.144 55.7998C126.84 50.5648 135.048 47.2582 142.658 45.5723C139.471 43.9835 136.279 42.3843 133.122 40.802C131.637 40.0575 130.158 39.3167 128.692 38.5825C116.333 32.3967 104.836 26.7082 96.178 23.0249C56.3842 6.09528 32.5847 12.5679 21.4831 24.8236ZM169.97 46.8567C159.964 42.1959 148.845 36.6233 137.955 31.1661C136.47 30.4217 134.988 29.6793 133.515 28.9418C121.228 22.7917 109.419 16.9431 100.396 13.1046C58.753 -4.61195 29.1138 0.343897 13.4961 17.5853C-1.90051 34.5825 -1.39043 61.1929 12.386 81.5697C20.3689 93.3772 28.0995 101.156 36.3644 105.061C44.9329 109.109 53.3666 108.672 61.8222 105.595C70.0211 102.61 78.5228 97.0437 87.6409 90.5266C90.7699 88.2901 93.9755 85.9388 97.3067 83.4952C103.911 78.6506 111.01 73.4436 118.985 68.0513C120.182 67.2426 121.362 66.4772 122.526 65.7536C129.567 65.2721 136.696 67.3788 143.775 70.9725C151.25 74.7675 158.244 79.9961 164.571 84.8975C165.189 85.3767 165.805 85.8554 166.415 86.3302C168.863 88.2333 171.23 90.0743 173.39 91.637C176.04 93.5537 178.778 95.3532 181.359 96.4093C183.775 97.3981 187.654 98.3755 191.164 95.9822C194.413 93.7661 195.424 89.8905 195.794 86.6426C197.39 72.6294 189.649 56.7467 174.784 48.9866C173.242 48.1819 171.637 47.4695 169.97 46.8567ZM139.677 57.5452C142.789 58.5976 145.789 59.9057 148.653 61.3594C157.133 65.6646 164.84 71.4703 171.17 76.3745C171.835 76.8894 172.481 77.3919 173.11 77.881C175.539 79.7696 177.713 81.4596 179.706 82.9017C181.976 84.5434 183.697 85.6267 184.972 86.2256C185.012 85.996 185.05 85.7297 185.085 85.4222C186.168 75.9197 180.783 64.2784 169.797 58.5437C162.636 54.8053 152.534 53.3532 139.677 57.5452ZM186.281 86.6968C186.282 86.6985 186.262 86.6976 186.217 86.6891C186.258 86.6909 186.28 86.6951 186.281 86.6968Z" fill="url(#paint0_linear_3_7)"/>
<defs>
<linearGradient id="paint0_linear_3_7" x1="48.7033" y1="14.5699" x2="132.25" y2="90.911" gradientUnits="userSpaceOnUse">
<stop stop-color="#FF9E67"/>
<stop offset="0.525" stop-color="#A566AF"/>
<stop offset="1" stop-color="#F636B5"/>
</linearGradient>
</defs>
</svg>
