<svg width="376" height="63" viewBox="0 0 376 63" fill="none" xmlns="http://www.w3.org/2000/svg">
<rect width="376" height="63" fill="white"/>
<path fill-rule="evenodd" clip-rule="evenodd" d="M12.8465 14.7069C6.54314 21.6639 6.25918 33.3269 12.7524 42.9286C16.9579 49.1476 20.521 52.4404 23.6935 53.9389C26.6968 55.3575 29.6821 55.3218 33.2517 54.0229C36.9642 52.672 41.1046 50.0257 46.1882 46.3931C47.8188 45.2279 49.5474 43.9606 51.3725 42.6225C55.1035 39.887 59.2383 36.8555 63.766 33.795C64.6884 33.1715 65.6017 32.5866 66.5056 32.039C66.5553 32.0069 66.6061 31.9763 66.6578 31.9471C71.4988 29.0335 76.068 27.1932 80.3048 26.2549C78.5302 25.3706 76.7537 24.4805 74.9961 23.5999C74.169 23.1855 73.3461 22.7732 72.5295 22.3646C65.6496 18.9218 59.249 15.7558 54.4292 13.7058C32.276 4.2833 19.0268 7.88574 12.8465 14.7069ZM95.5093 26.9697C89.939 24.3757 83.7487 21.2742 77.6865 18.2369C76.8595 17.8225 76.0349 17.4094 75.2146 16.9989C68.3744 13.576 61.8005 10.3208 56.7776 8.18443C33.5947 -1.67597 17.0945 1.08228 8.40015 10.6782C-0.171142 20.1383 0.112819 34.9488 7.78217 46.2898C12.2263 52.8614 16.5299 57.1909 21.1309 59.3641C25.9011 61.6172 30.5961 61.3741 35.3033 59.6612C39.8677 58.0004 44.6005 54.9021 49.6766 51.2749C51.4185 50.0301 53.203 48.7215 55.0575 47.3615C58.7343 44.6651 62.6861 41.7671 67.1261 38.7659C67.792 38.3158 68.4491 37.8898 69.0973 37.4871C73.0168 37.2191 76.9855 38.3916 80.9262 40.3917C85.0878 42.5039 88.9811 45.4139 92.5034 48.1419C92.8477 48.4086 93.1904 48.675 93.5303 48.9393C94.8928 49.9985 96.2108 51.0232 97.4133 51.8929C98.8884 52.9597 100.413 53.9612 101.849 54.549C103.194 55.0993 105.354 55.6433 107.308 54.3113C109.117 53.0779 109.679 50.9209 109.885 49.1132C110.774 41.3139 106.465 32.4741 98.189 28.1551C97.3309 27.7073 96.4372 27.3108 95.5093 26.9697ZM78.645 32.9186C80.3777 33.5043 82.0477 34.2323 83.6418 35.0414C88.3628 37.4376 92.6531 40.6688 96.1773 43.3983C96.5474 43.6849 96.9072 43.9645 97.2574 44.2368C98.6096 45.2879 99.8196 46.2285 100.929 47.0312C102.193 47.9448 103.151 48.5478 103.861 48.8811C103.883 48.7533 103.904 48.6051 103.924 48.4339C104.527 43.1452 101.529 36.666 95.413 33.4743C91.4263 31.3937 85.8027 30.5855 78.645 32.9186ZM104.59 49.1434C104.59 49.1443 104.579 49.1438 104.554 49.1391C104.577 49.1401 104.589 49.1424 104.59 49.1434Z" fill="url(#paint0_linear_1_2)"/>
<path d="M143.582 28.7273H135.972C135.918 28.0975 135.774 27.5263 135.54 27.0135C135.315 26.5007 135 26.0599 134.595 25.691C134.199 25.3132 133.718 25.0253 133.151 24.8274C132.585 24.6205 131.941 24.517 131.222 24.517C129.962 24.517 128.896 24.8229 128.023 25.4347C127.16 26.0464 126.503 26.9235 126.053 28.0661C125.612 29.2086 125.392 30.5805 125.392 32.1818C125.392 33.8731 125.617 35.29 126.067 36.4325C126.526 37.5661 127.187 38.4207 128.05 38.9964C128.914 39.5632 129.953 39.8466 131.168 39.8466C131.86 39.8466 132.481 39.7611 133.03 39.5902C133.579 39.4103 134.055 39.1539 134.46 38.821C134.865 38.4882 135.193 38.0878 135.445 37.62C135.706 37.1432 135.882 36.608 135.972 36.0142L143.582 36.0682C143.492 37.2377 143.164 38.4297 142.597 39.6442C142.031 40.8497 141.225 41.9652 140.182 42.9908C139.147 44.0073 137.865 44.826 136.336 45.4467C134.807 46.0675 133.03 46.3778 131.006 46.3778C128.469 46.3778 126.193 45.8336 124.178 44.745C122.171 43.6565 120.584 42.0552 119.414 39.9411C118.254 37.8269 117.673 35.2405 117.673 32.1818C117.673 29.1051 118.267 26.5142 119.455 24.4091C120.642 22.295 122.243 20.6982 124.259 19.6186C126.274 18.5301 128.523 17.9858 131.006 17.9858C132.751 17.9858 134.357 18.2242 135.823 18.701C137.29 19.1778 138.576 19.875 139.683 20.7926C140.789 21.7012 141.68 22.8213 142.354 24.1527C143.029 25.4841 143.438 27.009 143.582 28.7273ZM146.986 46V18.3636H158.915C160.966 18.3636 162.761 18.737 164.3 19.4837C165.838 20.2303 167.034 21.3054 167.889 22.7088C168.744 24.1122 169.171 25.7945 169.171 27.7557C169.171 29.7348 168.73 31.4036 167.849 32.7621C166.976 34.1205 165.748 35.1461 164.165 35.8388C162.59 36.5315 160.751 36.8778 158.645 36.8778H151.52V31.0483H157.134C158.016 31.0483 158.767 30.9403 159.388 30.7244C160.017 30.4995 160.499 30.1442 160.831 29.6584C161.173 29.1726 161.344 28.5384 161.344 27.7557C161.344 26.964 161.173 26.3208 160.831 25.826C160.499 25.3222 160.017 24.9534 159.388 24.7195C158.767 24.4766 158.016 24.3551 157.134 24.3551H154.489V46H146.986ZM163.18 33.3153L170.089 46H161.938L155.191 33.3153H163.18ZM179.872 18.3636V46H172.369V18.3636H179.872ZM198.325 27C198.253 26.1004 197.916 25.3987 197.313 24.8949C196.72 24.3911 195.816 24.1392 194.601 24.1392C193.827 24.1392 193.193 24.2337 192.698 24.4226C192.213 24.6025 191.853 24.8499 191.619 25.1648C191.385 25.4796 191.263 25.8395 191.254 26.2443C191.236 26.5772 191.295 26.8786 191.43 27.1484C191.574 27.4093 191.799 27.6477 192.105 27.8636C192.41 28.0705 192.802 28.2595 193.279 28.4304C193.755 28.6013 194.322 28.7543 194.979 28.8892L197.246 29.375C198.775 29.6989 200.084 30.1262 201.173 30.657C202.261 31.1877 203.152 31.813 203.845 32.5327C204.537 33.2434 205.046 34.044 205.369 34.9347C205.702 35.8253 205.873 36.7969 205.882 37.8494C205.873 39.6667 205.419 41.205 204.519 42.4645C203.62 43.724 202.333 44.6821 200.66 45.3388C198.996 45.9955 196.994 46.3239 194.655 46.3239C192.253 46.3239 190.157 45.9685 188.367 45.2578C186.585 44.5471 185.2 43.4541 184.21 41.9787C183.23 40.4943 182.735 38.5961 182.726 36.2841H189.851C189.896 37.1297 190.107 37.8404 190.485 38.4162C190.863 38.992 191.394 39.4283 192.078 39.7251C192.77 40.022 193.593 40.1705 194.547 40.1705C195.348 40.1705 196.018 40.0715 196.558 39.8736C197.097 39.6757 197.507 39.4013 197.786 39.0504C198.065 38.6996 198.209 38.2992 198.218 37.8494C198.209 37.4266 198.069 37.0578 197.799 36.7429C197.538 36.419 197.106 36.1312 196.504 35.8793C195.901 35.6184 195.087 35.3755 194.061 35.1506L191.308 34.5568C188.861 34.026 186.932 33.1399 185.519 31.8984C184.116 30.648 183.419 28.9432 183.428 26.7841C183.419 25.0298 183.887 23.496 184.831 22.1825C185.785 20.8601 187.103 19.83 188.785 19.0923C190.476 18.3546 192.415 17.9858 194.601 17.9858C196.832 17.9858 198.762 18.3591 200.39 19.1058C202.018 19.8525 203.273 20.9051 204.155 22.2635C205.046 23.6129 205.495 25.1918 205.504 27H198.325ZM208.736 46V18.3636H220.665C222.716 18.3636 224.511 18.7685 226.05 19.5781C227.588 20.3878 228.784 21.5258 229.639 22.9922C230.494 24.4586 230.921 26.1723 230.921 28.1335C230.921 30.1127 230.48 31.8265 229.599 33.2749C228.726 34.7232 227.498 35.8388 225.915 36.6214C224.34 37.4041 222.501 37.7955 220.395 37.7955H213.27V31.9659H218.884C219.766 31.9659 220.517 31.813 221.138 31.5071C221.767 31.1922 222.249 30.7469 222.581 30.1712C222.923 29.5954 223.094 28.9162 223.094 28.1335C223.094 27.3419 222.923 26.6671 222.581 26.1094C222.249 25.5426 221.767 25.1108 221.138 24.8139C220.517 24.508 219.766 24.3551 218.884 24.3551H216.239V46H208.736ZM240.488 24.4091V18.3636H264.508V24.4091H256.196V46H248.801V24.4091H240.488ZM292.806 32.1818C292.806 35.2585 292.208 37.8539 291.011 39.968C289.815 42.0732 288.2 43.67 286.167 44.7585C284.134 45.8381 281.867 46.3778 279.366 46.3778C276.847 46.3778 274.571 45.8336 272.537 44.745C270.513 43.6475 268.903 42.0462 267.706 39.9411C266.519 37.8269 265.925 35.2405 265.925 32.1818C265.925 29.1051 266.519 26.5142 267.706 24.4091C268.903 22.295 270.513 20.6982 272.537 19.6186C274.571 18.5301 276.847 17.9858 279.366 17.9858C281.867 17.9858 284.134 18.5301 286.167 19.6186C288.2 20.6982 289.815 22.295 291.011 24.4091C292.208 26.5142 292.806 29.1051 292.806 32.1818ZM285.087 32.1818C285.087 30.5265 284.867 29.1321 284.426 27.9986C283.994 26.8561 283.351 25.9924 282.496 25.4077C281.651 24.8139 280.607 24.517 279.366 24.517C278.124 24.517 277.076 24.8139 276.221 25.4077C275.376 25.9924 274.733 26.8561 274.292 27.9986C273.86 29.1321 273.644 30.5265 273.644 32.1818C273.644 33.8371 273.86 35.236 274.292 36.3786C274.733 37.5121 275.376 38.3757 276.221 38.9695C277.076 39.5542 278.124 39.8466 279.366 39.8466C280.607 39.8466 281.651 39.5542 282.496 38.9695C283.351 38.3757 283.994 37.5121 284.426 36.3786C284.867 35.236 285.087 33.8371 285.087 32.1818ZM323.05 32.1818C323.05 35.2585 322.452 37.8539 321.255 39.968C320.059 42.0732 318.444 43.67 316.411 44.7585C314.378 45.8381 312.111 46.3778 309.61 46.3778C307.091 46.3778 304.815 45.8336 302.782 44.745C300.757 43.6475 299.147 42.0462 297.951 39.9411C296.763 37.8269 296.169 35.2405 296.169 32.1818C296.169 29.1051 296.763 26.5142 297.951 24.4091C299.147 22.295 300.757 20.6982 302.782 19.6186C304.815 18.5301 307.091 17.9858 309.61 17.9858C312.111 17.9858 314.378 18.5301 316.411 19.6186C318.444 20.6982 320.059 22.295 321.255 24.4091C322.452 26.5142 323.05 29.1051 323.05 32.1818ZM315.331 32.1818C315.331 30.5265 315.111 29.1321 314.67 27.9986C314.238 26.8561 313.595 25.9924 312.74 25.4077C311.895 24.8139 310.851 24.517 309.61 24.517C308.368 24.517 307.32 24.8139 306.466 25.4077C305.62 25.9924 304.977 26.8561 304.536 27.9986C304.104 29.1321 303.888 30.5265 303.888 32.1818C303.888 33.8371 304.104 35.236 304.536 36.3786C304.977 37.5121 305.62 38.3757 306.466 38.9695C307.32 39.5542 308.368 39.8466 309.61 39.8466C310.851 39.8466 311.895 39.5542 312.74 38.9695C313.595 38.3757 314.238 37.5121 314.67 36.3786C315.111 35.236 315.331 33.8371 315.331 32.1818ZM326.521 46V18.3636H334.024V39.9545H345.198V46H326.521ZM363.128 27C363.056 26.1004 362.719 25.3987 362.116 24.8949C361.522 24.3911 360.618 24.1392 359.404 24.1392C358.63 24.1392 357.996 24.2337 357.501 24.4226C357.015 24.6025 356.655 24.8499 356.422 25.1648C356.188 25.4796 356.066 25.8395 356.057 26.2443C356.039 26.5772 356.098 26.8786 356.233 27.1484C356.377 27.4093 356.601 27.6477 356.907 27.8636C357.213 28.0705 357.605 28.2595 358.081 28.4304C358.558 28.6013 359.125 28.7543 359.782 28.8892L362.049 29.375C363.578 29.6989 364.887 30.1262 365.975 30.657C367.064 31.1877 367.955 31.813 368.647 32.5327C369.34 33.2434 369.848 34.044 370.172 34.9347C370.505 35.8253 370.676 36.7969 370.685 37.8494C370.676 39.6667 370.222 41.205 369.322 42.4645C368.422 43.724 367.136 44.6821 365.463 45.3388C363.798 45.9955 361.797 46.3239 359.458 46.3239C357.056 46.3239 354.96 45.9685 353.169 45.2578C351.388 44.5471 350.003 43.4541 349.013 41.9787C348.033 40.4943 347.538 38.5961 347.529 36.2841H354.654C354.699 37.1297 354.91 37.8404 355.288 38.4162C355.666 38.992 356.197 39.4283 356.88 39.7251C357.573 40.022 358.396 40.1705 359.35 40.1705C360.15 40.1705 360.821 40.0715 361.36 39.8736C361.9 39.6757 362.31 39.4013 362.588 39.0504C362.867 38.6996 363.011 38.2992 363.02 37.8494C363.011 37.4266 362.872 37.0578 362.602 36.7429C362.341 36.419 361.909 36.1312 361.306 35.8793C360.704 35.6184 359.89 35.3755 358.864 35.1506L356.111 34.5568C353.664 34.026 351.734 33.1399 350.322 31.8984C348.919 30.648 348.221 28.9432 348.23 26.7841C348.221 25.0298 348.689 23.496 349.634 22.1825C350.587 20.8601 351.905 19.83 353.588 19.0923C355.279 18.3546 357.218 17.9858 359.404 17.9858C361.635 17.9858 363.565 18.3591 365.193 19.1058C366.821 19.8525 368.076 20.9051 368.958 22.2635C369.848 23.6129 370.298 25.1918 370.307 27H363.128Z" fill="#333333"/>
<defs>
<linearGradient id="paint0_linear_1_2" x1="28" y1="9" x2="74.5" y2="51.5" gradientUnits="userSpaceOnUse">
<stop stop-color="#FF9E67"/>
<stop offset="0.525" stop-color="#A566AF"/>
<stop offset="1" stop-color="#666666"/>
</linearGradient>
</defs>
</svg>
