<svg width="120" height="120" viewBox="0 0 120 120" fill="none" xmlns="http://www.w3.org/2000/svg">
<g clip-path="url(#clip0_1_2)">
<path d="M94.6103 13.5284C110.234 25.472 120.879 57.1507 115.638 107.474C115.338 110.428 114.974 113.43 114.554 116.502L114.538 116.494C113.621 114.577 112.59 112.802 111.454 111.194C99.0839 93.3664 75.4352 93.4908 61.6942 94.4702C50.4742 95.3052 38.5642 90.0087 39.5251 79.2732C39.7552 76.7646 40.7816 73.6838 42.1075 71.5395C42.1075 71.5395 27.9925 69.8594 23.1197 61.5319C19.099 54.5861 24.5844 46.1226 24.5844 46.1226C10.6748 40.6979 -2.1565 29.9128 2.1707 17.0819C7.44838 1.51219 29.4174 5.07453 40.5285 9.85899C45.9727 -1.09251 63.33 3.40186 69.5789 14.5846C74.7458 5.5758 84.2651 5.58898 94.6103 13.5284Z" fill="url(#paint0_linear_1_2)"/>
<path d="M63.5968 37.5946C71.2753 42.7356 79.3908 49.2851 86.9338 57.0235C87.3664 52.9548 87.5843 46.8902 86.1023 40.9722C85.7832 39.6847 86.5648 38.3628 87.8523 38.0438C89.1399 37.7247 90.4535 38.5222 90.7726 39.8097C93.052 48.9664 91.7678 58.1114 91.1274 61.5716C102.522 74.4041 112.018 90.0276 115.638 107.476C115.339 110.431 114.975 113.432 114.555 116.504L114.539 116.496C113.622 114.579 112.591 112.805 111.455 111.196C108.582 93.8522 99.501 78.2816 88.3523 65.516C80.1212 70.9799 68.4456 73.8663 67.9178 73.9953C66.6303 74.3144 65.3324 73.5251 65.0134 72.2376C64.6943 70.9501 65.4918 69.6364 66.7711 69.3332C66.8912 69.2948 77.5674 66.6353 85.0642 61.8959C77.5952 53.975 69.4576 47.2737 61.7163 42.0602C56.1219 47.7 47.271 50.3978 46.871 50.5125C45.5906 50.8954 44.2601 50.1695 43.8772 48.8892C43.5019 47.6328 44.2202 46.2783 45.4923 45.9112C45.5725 45.8724 52.8151 43.6491 57.5476 39.3701C51.3441 35.5308 45.5423 32.7409 40.7943 31.1359C39.5396 30.7299 38.8628 29.3582 39.2771 28.0877C39.699 26.8411 41.0706 26.1643 42.3253 26.5704C47.0099 28.1427 52.685 30.8673 58.7867 34.5538C58.6707 31.6662 58.1822 27.945 56.5981 25.143C55.9347 23.9788 56.3432 22.5248 57.5074 21.8615C58.6476 21.2057 60.1256 21.6066 60.7731 22.7626C63.5904 27.7243 63.7323 34.4136 63.5968 37.5946Z" fill="#E8F1DB"/>
</g>
<defs>
<linearGradient id="paint0_linear_1_2" x1="58.0405" y1="-1.93442" x2="112.356" y2="96.5388" gradientUnits="userSpaceOnUse">
<stop offset="0.355" stop-color="#4A993A"/>
<stop offset="1" stop-color="#3CCC76"/>
</linearGradient>
<clipPath id="clip0_1_2">
<rect width="120" height="120" fill="white"/>
</clipPath>
</defs>
</svg>
