<svg width="64" height="64" viewBox="0 0 64 64" fill="none" xmlns="http://www.w3.org/2000/svg">
<path d="M18.4 51H45.6C48.5746 51 51 48.5746 51 45.6V18.4C51 15.4254 48.5746 13 45.6 13H18.4C15.4254 13 13 15.4254 13 18.4V45.6C13 48.5746 15.4254 51 18.4 51Z" stroke="url(#paint0_linear_185_54)" stroke-width="4" stroke-linejoin="round"/>
<path fill-rule="evenodd" clip-rule="evenodd" d="M34 22C34 20.8954 33.1046 20 32 20C30.8954 20 30 20.8954 30 22V30H22C20.8954 30 20 30.8954 20 32C20 33.1046 20.8954 34 22 34H30V42C30 43.1046 30.8954 44 32 44C33.1046 44 34 43.1046 34 42V34H42C43.1046 34 44 33.1046 44 32C44 30.8954 43.1046 30 42 30H34V22Z" fill="url(#paint1_linear_185_54)"/>
<defs>
<linearGradient id="paint0_linear_185_54" x1="32" y1="15" x2="32" y2="49" gradientUnits="userSpaceOnUse">
<stop stop-color="#FF9F68"/>
<stop offset="1" stop-color="#F737B6"/>
</linearGradient>
<linearGradient id="paint1_linear_185_54" x1="32" y1="20" x2="32" y2="44" gradientUnits="userSpaceOnUse">
<stop stop-color="#FF9F68"/>
<stop offset="1" stop-color="#F737B6"/>
</linearGradient>
</defs>
</svg>
