<svg width="120" height="120" viewBox="0 0 120 120" fill="none" xmlns="http://www.w3.org/2000/svg">
<path d="M115.638 107.473C120.879 57.1503 110.234 25.4719 94.6103 13.5284C84.2651 5.58898 74.7458 5.5758 69.5789 14.5846C63.33 3.40186 45.9727 -1.09251 40.5285 9.85899C29.4174 5.07453 7.4484 1.51219 2.17072 17.082C-2.15648 29.9128 10.6748 40.6979 24.5845 46.1226C24.5845 46.1226 19.099 54.5861 23.1197 61.5319C27.9925 69.8594 42.1075 71.5395 42.1075 71.5395C40.7817 73.6838 39.7552 76.7646 39.5251 79.2732C38.5642 90.0087 50.4743 95.3052 61.6942 94.4702C75.4352 93.4908 99.0839 93.3664 111.454 111.194C111.454 111.194 111.454 111.194 111.454 111.194C108.581 93.8504 99.5006 78.2812 88.3523 65.516C80.1212 70.9799 68.4456 73.8663 67.9178 73.9953C66.6303 74.3144 65.3324 73.5251 65.0134 72.2376C64.6943 70.9501 65.4918 69.6364 66.7711 69.3332C66.7769 69.3313 66.8065 69.3236 66.8585 69.31C67.8997 69.037 77.9241 66.4099 85.0642 61.8959C77.5952 53.975 69.4576 47.2737 61.7163 42.0602C56.122 47.7 47.271 50.3978 46.871 50.5125C45.5906 50.8954 44.2601 50.1695 43.8772 48.8892C43.502 47.6328 44.2202 46.2783 45.4923 45.9112C45.4974 45.9088 45.5309 45.8977 45.5904 45.8779C46.4754 45.584 53.1134 43.3795 57.5477 39.3701C51.3442 35.5308 45.5424 32.7409 40.7944 31.1359C39.5397 30.7299 38.8629 29.3582 39.2771 28.0877C39.699 26.8411 41.0706 26.1643 42.3253 26.5704C47.01 28.1427 52.685 30.8673 58.7867 34.5538C58.6707 31.6662 58.1822 27.945 56.5981 25.143C55.9347 23.9788 56.3432 22.5249 57.5074 21.8615C58.6476 21.2057 60.1256 21.6066 60.7731 22.7626C63.5904 27.7243 63.7323 34.4136 63.5968 37.5946C71.2753 42.7356 79.3909 49.2851 86.9338 57.0236C87.3664 52.9548 87.5843 46.8902 86.1023 40.9722C85.7832 39.6847 86.5648 38.3628 87.8523 38.0438C89.1399 37.7247 90.4536 38.5222 90.7726 39.8097C93.0521 48.9664 91.7678 58.1114 91.1274 61.5716C102.522 74.4033 112.016 90.0256 115.638 107.473Z" fill="white"/>
</svg>
