<svg width="299" height="63" viewBox="0 0 299 63" fill="none" xmlns="http://www.w3.org/2000/svg">
<rect width="299" height="63" fill="white"/>
<path d="M292.747 17.56C293.856 19.8213 294.411 22.3387 294.411 25.112C294.411 27.8853 293.856 30.4027 292.747 32.664C291.637 34.8827 290.208 36.6533 288.458 37.976C284.917 40.7067 281.248 42.072 277.451 42.072H269.451V49.304C269.451 50.2853 269.408 51.032 269.322 51.544C269.28 52.0133 269.088 52.568 268.747 53.208C268.149 54.36 266.485 54.936 263.755 54.936C260.768 54.936 259.019 54.1467 258.507 52.568C258.251 51.8427 258.122 50.7333 258.122 49.24V13.72C258.122 12.7387 258.144 12.0133 258.186 11.544C258.272 11.032 258.485 10.456 258.827 9.816C259.424 8.664 261.088 8.088 263.818 8.088H277.514C281.269 8.088 284.917 9.45333 288.458 12.184C290.208 13.5067 291.637 15.2987 292.747 17.56ZM277.514 30.744C278.794 30.744 280.053 30.2747 281.29 29.336C282.528 28.3973 283.146 26.9893 283.146 25.112C283.146 23.2347 282.528 21.8267 281.29 20.888C280.053 19.9067 278.773 19.416 277.451 19.416H269.451V30.744H277.514Z" fill="#505050"/>
<path d="M221.514 48.408C220.405 47.0427 219.85 45.8267 219.85 44.76C219.85 43.6507 220.767 42.2 222.602 40.408C223.669 39.384 224.799 38.872 225.994 38.872C227.189 38.872 228.853 39.9387 230.986 42.072C231.583 42.7973 232.437 43.5013 233.546 44.184C234.655 44.824 235.679 45.144 236.618 45.144C240.586 45.144 242.57 43.5227 242.57 40.28C242.57 39.2987 242.015 38.488 240.906 37.848C239.839 37.1653 238.495 36.6747 236.874 36.376C235.253 36.0773 233.503 35.608 231.626 34.968C229.749 34.2853 227.999 33.496 226.378 32.6C224.757 31.704 223.391 30.296 222.282 28.376C221.215 26.4133 220.682 24.0667 220.682 21.336C220.682 17.5813 222.069 14.3173 224.842 11.544C227.658 8.72799 231.477 7.31999 236.298 7.31999C238.858 7.31999 241.183 7.66133 243.274 8.34399C245.407 8.98399 246.879 9.64533 247.69 10.328L249.29 11.544C250.613 12.7813 251.274 13.8267 251.274 14.68C251.274 15.5333 250.762 16.7067 249.738 18.2C248.287 20.3333 246.794 21.4 245.258 21.4C244.362 21.4 243.253 20.9733 241.93 20.12C241.802 20.0347 241.546 19.8213 241.162 19.48C240.821 19.1387 240.501 18.8613 240.202 18.648C239.306 18.0933 238.154 17.816 236.746 17.816C235.381 17.816 234.229 18.1573 233.29 18.84C232.394 19.48 231.946 20.3973 231.946 21.592C231.946 22.744 232.479 23.6827 233.546 24.408C234.655 25.1333 236.021 25.624 237.642 25.88C239.263 26.136 241.034 26.5413 242.954 27.096C244.874 27.608 246.645 28.248 248.266 29.016C249.887 29.784 251.231 31.128 252.298 33.048C253.407 34.9253 253.962 37.2507 253.962 40.024C253.962 42.7973 253.407 45.2507 252.298 47.384C251.189 49.4747 249.738 51.096 247.946 52.248C244.49 54.5093 240.799 55.64 236.874 55.64C234.869 55.64 232.97 55.4053 231.178 54.936C229.386 54.424 227.935 53.8053 226.826 53.08C224.565 51.7147 222.986 50.392 222.09 49.112L221.514 48.408Z" fill="#505050"/>
<path d="M204.372 13.72C204.372 12.7387 204.394 12.0133 204.437 11.544C204.522 11.032 204.735 10.456 205.076 9.816C205.674 8.664 207.338 8.088 210.068 8.088C213.055 8.088 214.826 8.87733 215.381 10.456C215.594 11.1813 215.701 12.2907 215.701 13.784V49.368C215.701 50.392 215.658 51.1387 215.573 51.608C215.53 52.0773 215.338 52.632 214.996 53.272C214.399 54.424 212.735 55 210.005 55C207.018 55 205.269 54.1893 204.757 52.568C204.501 51.8853 204.372 50.7973 204.372 49.304V13.72Z" fill="#505050"/>
<path d="M199.902 47.064C200.542 48.6 200.861 49.7093 200.861 50.392C200.861 52.0133 199.539 53.3787 196.893 54.488C195.528 55.0853 194.419 55.384 193.566 55.384C192.755 55.384 192.072 55.192 191.517 54.808C191.005 54.3813 190.621 53.9547 190.365 53.528C189.939 52.7173 188.275 48.856 185.374 41.944L183.389 42.072H175.325V49.304C175.325 50.2853 175.283 51.032 175.197 51.544C175.155 52.0133 174.963 52.568 174.621 53.208C174.024 54.36 172.36 54.936 169.629 54.936C166.643 54.936 164.893 54.1467 164.381 52.568C164.125 51.8427 163.997 50.7333 163.997 49.24V13.72C163.997 12.7387 164.019 12.0133 164.061 11.544C164.147 11.032 164.36 10.456 164.701 9.816C165.299 8.664 166.963 8.088 169.693 8.088H183.517C187.272 8.088 190.92 9.45333 194.461 12.184C196.168 13.5067 197.576 15.2987 198.685 17.56C199.795 19.8213 200.349 22.3387 200.349 25.112C200.349 29.9333 198.749 33.9013 195.549 37.016C196.488 39.2773 197.939 42.6267 199.902 47.064ZM175.325 30.744H183.517C184.755 30.744 185.992 30.2747 187.229 29.336C188.467 28.3973 189.085 26.9893 189.085 25.112C189.085 23.2347 188.467 21.8267 187.229 20.888C185.992 19.9067 184.712 19.416 183.389 19.416H175.325V30.744Z" fill="#505050"/>
<path d="M149.872 42.712L151.024 41.88C152.475 41.0267 153.499 40.6 154.096 40.6C155.419 40.6 156.848 41.7947 158.384 44.184C159.323 45.6773 159.792 46.872 159.792 47.768C159.792 48.664 159.493 49.4107 158.896 50.008C158.341 50.6053 157.68 51.1387 156.912 51.608C156.144 52.0773 155.397 52.5253 154.672 52.952C153.989 53.3787 152.56 53.9333 150.384 54.616C148.208 55.2987 146.096 55.64 144.048 55.64C142.043 55.64 139.995 55.384 137.904 54.872C135.856 54.3173 133.723 53.4213 131.504 52.184C129.328 50.904 127.365 49.368 125.616 47.576C123.867 45.7413 122.416 43.416 121.264 40.6C120.155 37.7413 119.6 34.648 119.6 31.32C119.6 27.992 120.155 24.984 121.264 22.296C122.373 19.5653 123.781 17.3253 125.488 15.576C127.237 13.784 129.221 12.2907 131.44 11.096C135.621 8.792 139.824 7.64 144.048 7.64C146.053 7.64 148.08 7.96 150.128 8.6C152.219 9.19733 153.797 9.816 154.864 10.456L156.4 11.352C157.168 11.8213 157.765 12.2053 158.192 12.504C159.301 13.4 159.856 14.424 159.856 15.576C159.856 16.6853 159.408 17.8587 158.512 19.096C156.848 21.4 155.355 22.552 154.032 22.552C153.264 22.552 152.176 22.0827 150.768 21.144C148.976 19.6933 146.587 18.968 143.6 18.968C140.827 18.968 138.096 19.928 135.408 21.848C134.128 22.7867 133.061 24.1093 132.208 25.816C131.355 27.5227 130.928 29.464 130.928 31.64C130.928 33.7733 131.355 35.6933 132.208 37.4C133.061 39.1067 134.149 40.4507 135.472 41.432C138.075 43.3093 140.784 44.248 143.6 44.248C144.923 44.248 146.16 44.0773 147.312 43.736C148.507 43.3947 149.36 43.0533 149.872 42.712Z" fill="#505050"/>
<path fill-rule="evenodd" clip-rule="evenodd" d="M12.8465 14.7069C6.54314 21.6639 6.25918 33.3269 12.7524 42.9286C16.9579 49.1476 20.521 52.4404 23.6935 53.9389C26.6968 55.3575 29.6821 55.3218 33.2517 54.0229C36.9642 52.672 41.1046 50.0257 46.1882 46.3931C47.8188 45.2279 49.5474 43.9606 51.3725 42.6225C55.1035 39.887 59.2383 36.8555 63.766 33.795C64.6884 33.1715 65.6017 32.5866 66.5056 32.039C66.5553 32.0069 66.6061 31.9763 66.6578 31.9471C71.4988 29.0335 76.068 27.1932 80.3048 26.2549C78.5302 25.3706 76.7537 24.4805 74.9961 23.5999C74.169 23.1855 73.3461 22.7732 72.5295 22.3646C65.6496 18.9218 59.249 15.7558 54.4292 13.7058C32.276 4.2833 19.0268 7.88574 12.8465 14.7069ZM95.5093 26.9697C89.939 24.3757 83.7487 21.2742 77.6865 18.2369C76.8595 17.8225 76.0349 17.4094 75.2146 16.9989C68.3744 13.576 61.8005 10.3208 56.7776 8.18443C33.5947 -1.67597 17.0945 1.08228 8.40015 10.6782C-0.171142 20.1383 0.112819 34.9488 7.78217 46.2898C12.2263 52.8614 16.5299 57.1909 21.1309 59.3641C25.9011 61.6172 30.5961 61.3741 35.3033 59.6612C39.8677 58.0004 44.6005 54.9021 49.6766 51.2749C51.4185 50.0301 53.203 48.7215 55.0575 47.3615C58.7343 44.6651 62.6861 41.7671 67.1261 38.7659C67.792 38.3158 68.4491 37.8898 69.0973 37.4871C73.0168 37.2191 76.9855 38.3916 80.9262 40.3917C85.0878 42.5039 88.9811 45.4139 92.5034 48.1419C92.8477 48.4086 93.1904 48.675 93.5303 48.9393C94.8928 49.9985 96.2108 51.0232 97.4133 51.8929C98.8884 52.9597 100.413 53.9612 101.849 54.549C103.194 55.0993 105.354 55.6433 107.308 54.3113C109.117 53.0779 109.679 50.9209 109.885 49.1132C110.774 41.3139 106.465 32.4741 98.189 28.1551C97.3309 27.7073 96.4372 27.3108 95.5093 26.9697ZM78.645 32.9186C80.3777 33.5043 82.0477 34.2323 83.6418 35.0414C88.3628 37.4376 92.6531 40.6688 96.1773 43.3983C96.5474 43.6849 96.9072 43.9645 97.2574 44.2368C98.6096 45.2879 99.8196 46.2285 100.929 47.0312C102.193 47.9448 103.151 48.5478 103.861 48.8811C103.883 48.7533 103.904 48.6051 103.924 48.4339C104.527 43.1452 101.529 36.666 95.413 33.4743C91.4263 31.3937 85.8027 30.5855 78.645 32.9186ZM104.59 49.1434C104.59 49.1443 104.579 49.1438 104.554 49.1391C104.577 49.1401 104.589 49.1424 104.59 49.1434Z" fill="url(#paint0_linear_1_2)"/>
<defs>
<linearGradient id="paint0_linear_1_2" x1="28" y1="9" x2="74.5" y2="51.5" gradientUnits="userSpaceOnUse">
<stop stop-color="#FF9E67"/>
<stop offset="0.525" stop-color="#A566AF"/>
<stop offset="1" stop-color="#666666"/>
</linearGradient>
</defs>
</svg>
