<svg width="64" height="64" viewBox="0 0 64 64" fill="none" xmlns="http://www.w3.org/2000/svg">
<path d="M34.4021 10.382C34.1344 9.55792 33.3665 9 32.5 9C31.6335 9 30.8656 9.55792 30.5979 10.382L26.4444 23.1652H13.0033C12.1369 23.1652 11.369 23.7231 11.1012 24.5471C10.8335 25.3712 11.1268 26.2739 11.8278 26.7832L22.7018 34.6836L18.5483 47.4668C18.2805 48.2909 18.5739 49.1936 19.2748 49.7029C19.9758 50.2122 20.925 50.2122 21.626 49.7029L32.5 41.8024L43.374 49.7029C44.075 50.2122 45.0242 50.2122 45.7252 49.7029C46.4261 49.1936 46.7195 48.2909 46.4517 47.4668L42.2982 34.6836L53.1722 26.7832C53.8732 26.2739 54.1665 25.3712 53.8988 24.5471C53.631 23.7231 52.8631 23.1652 51.9967 23.1652H38.5556L34.4021 10.382Z" stroke="url(#paint0_linear_185_35)" stroke-width="4" stroke-linejoin="round"/>
<defs>
<linearGradient id="paint0_linear_185_35" x1="32.5" y1="11" x2="32.5" y2="52" gradientUnits="userSpaceOnUse">
<stop stop-color="#FF9F68"/>
<stop offset="1" stop-color="#F737B6"/>
</linearGradient>
</defs>
</svg>
