<svg width="112" height="63" viewBox="0 0 112 63" fill="none" xmlns="http://www.w3.org/2000/svg">
<rect width="112" height="63" fill="white"/>
<path fill-rule="evenodd" clip-rule="evenodd" d="M12.8465 14.7069C6.54314 21.6639 6.25918 33.3269 12.7524 42.9286C16.9579 49.1476 20.521 52.4404 23.6935 53.9389C26.6968 55.3575 29.6821 55.3218 33.2517 54.0229C36.9642 52.672 41.1046 50.0257 46.1882 46.3931C47.8188 45.2279 49.5474 43.9606 51.3725 42.6225C55.1035 39.887 59.2383 36.8555 63.766 33.795C64.6884 33.1715 65.6017 32.5866 66.5056 32.039C66.5553 32.0069 66.6061 31.9763 66.6578 31.9471C71.4988 29.0335 76.068 27.1932 80.3048 26.2549C78.5302 25.3706 76.7537 24.4805 74.9961 23.5999C74.169 23.1855 73.3461 22.7732 72.5295 22.3646C65.6496 18.9218 59.249 15.7558 54.4292 13.7058C32.276 4.2833 19.0268 7.88574 12.8465 14.7069ZM95.5093 26.9697C89.939 24.3757 83.7487 21.2742 77.6865 18.2369C76.8595 17.8225 76.0349 17.4094 75.2146 16.9989C68.3744 13.576 61.8005 10.3208 56.7776 8.18443C33.5947 -1.67597 17.0945 1.08228 8.40015 10.6782C-0.171142 20.1383 0.112819 34.9488 7.78217 46.2898C12.2263 52.8614 16.5299 57.1909 21.1309 59.3641C25.9011 61.6172 30.5961 61.3741 35.3033 59.6612C39.8677 58.0004 44.6005 54.9021 49.6766 51.2749C51.4185 50.0301 53.203 48.7215 55.0575 47.3615C58.7343 44.6651 62.6861 41.7671 67.1261 38.7659C67.792 38.3158 68.4491 37.8898 69.0973 37.4871C73.0168 37.2191 76.9855 38.3916 80.9262 40.3917C85.0878 42.5039 88.9811 45.4139 92.5034 48.1419C92.8477 48.4086 93.1904 48.675 93.5303 48.9393C94.8928 49.9985 96.2108 51.0232 97.4133 51.8929C98.8884 52.9597 100.413 53.9612 101.849 54.549C103.194 55.0993 105.354 55.6433 107.308 54.3113C109.117 53.0779 109.679 50.9209 109.885 49.1132C110.774 41.3139 106.465 32.4741 98.189 28.1551C97.3309 27.7073 96.4372 27.3108 95.5093 26.9697ZM78.645 32.9186C80.3777 33.5043 82.0477 34.2323 83.6418 35.0414C88.3628 37.4376 92.6531 40.6688 96.1773 43.3983C96.5474 43.6849 96.9072 43.9645 97.2574 44.2368C98.6096 45.2879 99.8196 46.2285 100.929 47.0312C102.193 47.9448 103.151 48.5478 103.861 48.8811C103.883 48.7533 103.904 48.6051 103.924 48.4339C104.527 43.1452 101.529 36.666 95.413 33.4743C91.4263 31.3937 85.8027 30.5855 78.645 32.9186ZM104.59 49.1434C104.59 49.1443 104.579 49.1438 104.554 49.1391C104.577 49.1401 104.589 49.1424 104.59 49.1434Z" fill="url(#paint0_linear_6_26)"/>
<defs>
<linearGradient id="paint0_linear_6_26" x1="28" y1="9" x2="74.5" y2="51.5" gradientUnits="userSpaceOnUse">
<stop stop-color="#FF9E67"/>
<stop offset="0.525" stop-color="#A566AF"/>
<stop offset="1" stop-color="#F636B5"/>
</linearGradient>
</defs>
</svg>
