<svg width="120" height="120" viewBox="0 0 120 120" fill="none" xmlns="http://www.w3.org/2000/svg">
<path fill-rule="evenodd" clip-rule="evenodd" d="M60 115C90.3757 115 115 90.3757 115 60C115 29.6243 90.3757 5 60 5C29.6243 5 5 29.6243 5 60C5 90.3757 29.6243 115 60 115ZM60 111C88.1665 111 111 88.1665 111 60C111 31.8335 88.1665 9 60 9C31.8335 9 9 31.8335 9 60C9 88.1665 31.8335 111 60 111Z" fill="url(#paint0_linear_168_27)"/>
<path fill-rule="evenodd" clip-rule="evenodd" d="M31.2308 49.182C27.0286 53.6631 26.8393 61.1755 31.1681 67.36C33.9718 71.3657 36.3472 73.4867 38.4622 74.4519C40.4644 75.3656 42.4546 75.3426 44.8343 74.506C47.3093 73.6359 50.0696 71.9314 53.4586 69.5916C54.5457 68.841 55.6981 68.0247 56.9149 67.1628C59.4022 65.4009 62.1589 63.4482 65.1773 61.4769C65.7923 61.0754 66.4009 60.6986 67.0037 60.3459C67.0367 60.3252 67.0705 60.3055 67.105 60.2867C70.3324 58.41 73.3786 57.2246 76.203 56.6203C75.0202 56.0507 73.8355 55.4774 72.6638 54.9101C72.1127 54.6433 71.5638 54.3777 71.0197 54.1145C66.4329 51.8969 62.1659 49.8577 58.9527 48.5372C44.1838 42.4681 35.351 44.7885 31.2308 49.182ZM86.3394 57.0807C82.6258 55.4098 78.4992 53.4121 74.4575 51.4558C73.9064 51.1889 73.3564 50.9228 72.8097 50.6584C68.2496 48.4536 63.8668 46.357 60.5181 44.9809C45.063 38.6297 34.0629 40.4063 28.2666 46.5872C22.5524 52.6805 22.7417 62.2201 27.8546 69.525C30.8173 73.7579 33.6864 76.5465 36.7538 77.9464C39.9339 79.3976 43.0639 79.2409 46.2021 78.1378C49.2449 77.0677 52.4002 75.0723 55.7842 72.736C56.9455 71.9342 58.1352 71.0913 59.3716 70.2153C61.8226 68.4785 64.4573 66.6119 67.4171 64.6788C67.8614 64.3889 68.2993 64.1145 68.7313 63.8551C71.3444 63.6824 73.9903 64.4377 76.6175 65.726C79.3917 67.0865 81.9875 68.9609 84.3356 70.718C84.565 70.8898 84.7936 71.0614 85.02 71.2316C85.9285 71.9138 86.807 72.5738 87.6087 73.134C88.5922 73.8211 89.6083 74.4662 90.5662 74.8448C91.4629 75.1993 92.9025 75.5497 94.2052 74.6917C95.411 73.8973 95.7862 72.5079 95.9235 71.3436C96.5159 66.32 93.6429 60.6262 88.126 57.8443C87.5537 57.5558 86.9581 57.3004 86.3394 57.0807ZM75.0966 60.9124C76.2516 61.2897 77.365 61.7586 78.4279 62.2798C81.5751 63.8232 84.4355 65.9044 86.7847 67.6626C87.0315 67.8471 87.2713 68.0273 87.5047 68.2026C88.4062 68.8797 89.2131 69.4855 89.9527 70.0025C90.7952 70.591 91.4339 70.9794 91.9071 71.1941C91.922 71.1118 91.9361 71.0163 91.9491 70.9061C92.351 67.4995 90.3524 63.3262 86.2752 61.2704C83.6175 59.9302 79.8683 59.4096 75.0966 60.9124ZM92.3929 71.363C92.3929 71.363 92.3859 71.3633 92.3692 71.3602C92.3844 71.3609 92.3929 71.363 92.3929 71.363Z" fill="url(#paint1_linear_168_27)"/>
<defs>
<linearGradient id="paint0_linear_168_27" x1="31.4813" y1="18.0442" x2="101.062" y2="52.7835" gradientUnits="userSpaceOnUse">
<stop stop-color="#FF9E67"/>
<stop offset="0.525" stop-color="#A566AF"/>
<stop offset="1" stop-color="#F636B5"/>
</linearGradient>
<linearGradient id="paint1_linear_168_27" x1="41.3332" y1="45.5062" x2="71.3595" y2="73.9105" gradientUnits="userSpaceOnUse">
<stop stop-color="#FF9E67"/>
<stop offset="0.525" stop-color="#A566AF"/>
<stop offset="1" stop-color="#F636B5"/>
</linearGradient>
</defs>
</svg>
