<svg width="153" height="145" viewBox="0 0 153 145" fill="none" xmlns="http://www.w3.org/2000/svg">
  <path class="fill-slate-500" fill-rule="evenodd" clip-rule="evenodd" d="M152.04 72.4C152.04 112.522 117.952 144.8 76.02 144.8C41.5373 144.8 45.0631 125.695 48.1754 108.831C48.8749 105.041 49.5535 101.363 49.775 98.0417C51.8867 60.635 30.1667 53.9983 25.6417 82.9583C19.6083 122.175 0 104.075 0 72.4C0 32.58 34.0883 0 76.02 0C117.952 0 152.04 32.2783 152.04 72.4ZM101.36 24.7366C101.36 31.2342 96.0927 36.5016 89.595 36.5016C83.0974 36.5016 77.83 31.2342 77.83 24.7366C77.83 18.239 83.0974 12.9716 89.595 12.9716C96.0927 12.9716 101.36 18.239 101.36 24.7366ZM52.49 42.8366C58.9876 42.8366 64.255 37.5693 64.255 31.0716C64.255 24.574 58.9876 19.3066 52.49 19.3066C45.9924 19.3066 40.725 24.574 40.725 31.0716C40.725 37.5693 45.9924 42.8366 52.49 42.8366ZM132.733 45.5516C132.733 52.0492 127.466 57.3166 120.968 57.3166C114.471 57.3166 109.203 52.0492 109.203 45.5516C109.203 39.054 114.471 33.7866 120.968 33.7866C127.466 33.7866 132.733 39.054 132.733 45.5516ZM128.208 95.3266C134.706 95.3266 139.973 90.0593 139.973 83.5616C139.973 77.064 134.706 71.7966 128.208 71.7966C121.711 71.7966 116.443 77.064 116.443 83.5616C116.443 90.0593 121.711 95.3266 128.208 95.3266ZM112.823 112.522C112.823 119.019 107.556 124.287 101.058 124.287C94.5607 124.287 89.2934 119.019 89.2934 112.522C89.2934 106.024 94.5607 100.757 101.058 100.757C107.556 100.757 112.823 106.024 112.823 112.522Z" fill="black"/>
</svg>