<svg width="160" height="160" viewBox="0 0 160 160" fill="none" xmlns="http://www.w3.org/2000/svg">
<rect width="160" height="160" fill="white"/>
<path d="M80.02 152.8C121.952 152.8 156.04 120.522 156.04 80.4C156.04 40.2783 121.952 8 80.02 8C38.0883 8 4 40.58 4 80.4C4 112.075 23.6083 130.175 29.6417 90.9583C34.1667 61.9983 55.8867 68.635 53.775 106.042C52.5683 124.142 37.7867 152.8 80.02 152.8Z" fill="black"/>
<path d="M93.595 44.5016C100.093 44.5016 105.36 39.2342 105.36 32.7366C105.36 26.239 100.093 20.9716 93.595 20.9716C87.0974 20.9716 81.83 26.239 81.83 32.7366C81.83 39.2342 87.0974 44.5016 93.595 44.5016Z" fill="white"/>
<path d="M56.49 50.8366C62.9876 50.8366 68.255 45.5693 68.255 39.0716C68.255 32.574 62.9876 27.3066 56.49 27.3066C49.9924 27.3066 44.725 32.574 44.725 39.0716C44.725 45.5693 49.9924 50.8366 56.49 50.8366Z" fill="white"/>
<path d="M124.968 65.3166C131.466 65.3166 136.733 60.0492 136.733 53.5516C136.733 47.054 131.466 41.7866 124.968 41.7866C118.471 41.7866 113.203 47.054 113.203 53.5516C113.203 60.0492 118.471 65.3166 124.968 65.3166Z" fill="white"/>
<path d="M132.208 103.327C138.706 103.327 143.973 98.0593 143.973 91.5616C143.973 85.064 138.706 79.7966 132.208 79.7966C125.711 79.7966 120.443 85.064 120.443 91.5616C120.443 98.0593 125.711 103.327 132.208 103.327Z" fill="white"/>
<path d="M105.058 132.287C111.556 132.287 116.823 127.019 116.823 120.522C116.823 114.024 111.556 108.757 105.058 108.757C98.5607 108.757 93.2934 114.024 93.2934 120.522C93.2934 127.019 98.5607 132.287 105.058 132.287Z" fill="white"/>
</svg>
